<?xml version="1.0" encoding="UTF-8" standalone="no"?>
<svg width="1600px" height="682px" viewBox="0 0 1600 682" version="1.1" xmlns="http://www.w3.org/2000/svg" xmlns:xlink="http://www.w3.org/1999/xlink">
    <!-- Generator: sketchtool 50.2 (55047) - http://www.bohemiancoding.com/sketch -->
    <title>74DC6E55-88E2-4049-9492-F11E030993C2</title>
    <desc>Created with sketchtool.</desc>
    <defs>
        <rect id="path-1" x="0" y="0" width="1601" height="682"></rect>
        <path d="M38.46,4.21542362 C38.46,4.21542362 50.927,0.65785035 61.801,0.65785035 C67.237,0.65785035 72.276,1.5479376 75.159,4.21542362 C82.728,11.2186153 67.59,26.9246768 75.159,33.9278685 C82.728,40.9310602 99.702,40.9310602 107.271,33.9278685 C114.841,26.9246768 99.702,11.2186153 107.271,4.21542362 C110.155,1.54701236 115.192,0.65785035 120.63,0.658775597 C131.503,0.658775597 143.969,4.21542362 143.969,4.21542362 C143.969,4.21542362 135.32,30.1695167 143.969,38.1701243 C147.754,41.673108 153.891,39.9216161 160.027,38.1710495 C166.163,36.4204829 172.299,34.6699163 176.085,38.1701243 C183.653,45.1751665 183.653,60.8793774 176.085,67.8834944 C172.299,71.3855529 166.162,69.634061 160.026,67.8834944 C153.89,66.1329278 147.753,64.3814359 143.969,67.8834944 C135.32,75.8850272 143.969,101.838195 143.969,101.838195 C143.969,101.838195 115.921,109.843429 107.271,101.838195 C99.702,94.8359286 114.841,79.1298671 107.271,72.1266754 C99.702,65.1225585 82.728,65.1225585 75.159,72.1266754 C67.59,79.1298671 82.728,94.8359286 75.159,101.838195 C66.51,109.843429 38.46,101.838195 38.46,101.838195 C38.46,101.838195 47.109,75.8850272 38.46,67.8834944 C34.675,64.3814359 28.539,66.1329278 22.403,67.8834944 C16.267,69.634061 10.131,71.3855529 6.347,67.8834944 C-1.222,60.8793774 -1.222,45.1751665 6.347,38.1701243 C10.131,34.6699163 16.266,36.4204829 22.401,38.1710495 C28.538,39.9216161 34.675,41.673108 38.46,38.1701243" id="path-3"></path>
        <linearGradient x1="20.8686395%" y1="96.6146462%" x2="79.1318922%" y2="3.40877115%" id="linearGradient-5">
            <stop stop-color="#FFFFFF" offset="0%"></stop>
            <stop stop-color="#EBEBEB" offset="100%"></stop>
        </linearGradient>
        <path d="M40.646,5.96228925 C44.431,2.46115602 50.567,0.710589408 56.702,0.710589408 C62.838,0.710589408 68.974,2.46115602 72.758,5.96228925 C80.328,12.9645557 65.19,28.6706172 72.758,35.6738089 C81.408,43.6771922 109.46,35.6738089 109.46,35.6738089 C109.46,35.6738089 118.109,61.627902 109.46,69.6285095 C105.675,73.1314933 99.538,71.3800014 93.401,69.6294348 C87.266,67.8788682 81.131,66.1283015 77.347,69.6285095 C69.778,76.6335517 69.778,92.3377627 77.347,99.3418796 C81.132,102.843938 87.267,101.092446 93.403,99.3418796 C99.539,97.591313 105.675,95.8398212 109.46,99.3418796 C118.109,107.343412 109.46,133.29658 109.46,133.29658 C109.46,133.29658 81.408,125.295047 72.758,133.29658 C65.19,140.299772 80.328,156.006759 72.758,163.0081 C65.19,170.012217 48.215,170.012217 40.646,163.0081 C33.08,156.006759 48.215,140.299772 40.646,133.29658 C31.997,125.295047 3.947,133.29658 3.947,133.29658 C3.947,133.29658 -4.702,107.343412 3.947,99.3418796 C7.731,95.8398212 13.867,97.591313 20.003,99.3418796 C26.139,101.092446 32.274,102.843938 36.059,99.3418796 C43.63,92.3377627 43.63,76.6335517 36.059,69.6285095 C32.274,66.1283015 26.139,67.8788682 20.004,69.6294348 C13.868,71.3800014 7.731,73.1314933 3.947,69.6285095 C-4.702,61.627902 3.947,35.6738089 3.947,35.6738089 C3.947,35.6738089 31.997,43.6771922 40.646,35.6738089" id="path-6"></path>
        <linearGradient x1="3.39467037%" y1="79.1391463%" x2="96.6017758%" y2="20.8737357%" id="linearGradient-8">
            <stop stop-color="#FFFFFF" offset="0%"></stop>
            <stop stop-color="#EBEBEB" offset="100%"></stop>
        </linearGradient>
        <path d="M0.758,130.559289 L0.758,37.5075304 C9.67611517,39.055197 21.9265082,40.0427322 27.136,35.220438 C34.705,28.2181716 19.568,12.5121101 27.136,5.50891841 C30.921,2.00685993 37.057,0.256293315 43.192,0.256293315 C49.329,0.256293315 55.465,2.00685993 59.249,5.50891841 C66.818,12.5121101 51.68,28.2181716 59.249,35.220438 C67.898,43.2256718 95.947,35.220438 95.947,35.220438 C95.947,35.220438 104.596,61.1736059 95.947,69.1751387 C92.162,72.6790477 86.025,70.928481 79.888,69.1769892 C73.754,67.4264226 67.618,65.6767812 63.836,69.1751387 C56.266,76.1811061 56.266,91.8834666 63.836,98.8875836 C67.619,102.390567 73.756,100.639075 79.891,98.8875836 C86.027,97.1379422 92.162,95.3864503 95.947,98.8875836 C104.596,106.892817 95.947,132.84691 95.947,132.84691 C95.947,132.84691 67.898,124.839826 59.249,132.84691 C51.68,139.849177 66.818,155.555238 59.249,162.555654 C51.68,169.558846 34.705,169.558846 27.136,162.555654 C19.568,155.555238 34.705,139.849177 27.136,132.84691 C21.9265082,128.023502 9.67611517,129.011265 0.758,130.559289" id="path-9"></path>
        <linearGradient x1="2.05844167%" y1="80.3761148%" x2="98.5447614%" y2="22.1109547%" id="linearGradient-11">
            <stop stop-color="#FFFFFF" offset="0%"></stop>
            <stop stop-color="#EBEBEB" offset="100%"></stop>
        </linearGradient>
        <polygon id="path-12" points="0.758 0.256617151 99.791 0.256617151 99.791 167.808603 0.758 167.808603"></polygon>
        <path d="M0.758,104.125287 L0.758,1.92852526 C4.74128699,1.23732055 9.38938025,0.65785035 13.778,0.65785035 C19.214,0.65785035 24.253,1.5479376 27.136,4.21542362 C34.705,11.2186153 19.568,26.9246768 27.136,33.9278685 C34.705,40.9310602 51.68,40.9310602 59.249,33.9278685 C66.818,26.9246768 51.68,11.2186153 59.249,4.21542362 C62.133,1.54701236 67.17,0.65785035 72.607,0.658775597 C83.48,0.658775597 95.947,4.21542362 95.947,4.21542362 C95.947,4.21542362 87.298,30.1695167 95.947,38.1701243 C99.731,41.673108 105.868,39.9216161 112.005,38.1710495 C118.14,36.4204829 124.274,34.6699163 128.059,38.1701243 C135.63,45.1751665 135.63,60.8793774 128.059,67.8834944 C124.274,71.3855529 118.138,69.634061 112.003,67.8834944 C105.867,66.1329278 99.73,64.3814359 95.947,67.8834944 C87.298,75.8850272 95.947,101.838195 95.947,101.838195 C95.947,101.838195 67.898,109.843429 59.249,101.838195 C51.68,94.8359286 66.818,79.1298671 59.249,72.1266754 C51.68,65.1225585 34.705,65.1225585 27.136,72.1266754 C19.568,79.1298671 34.705,94.8359286 27.136,101.838195 C21.9265082,106.660489 9.67611517,105.672954 0.758,104.125287" id="path-14"></path>
        <linearGradient x1="6.89181512%" y1="105.338119%" x2="80.5203272%" y2="12.1318191%" id="linearGradient-16">
            <stop stop-color="#FFFFFF" offset="0%"></stop>
            <stop stop-color="#EBEBEB" offset="100%"></stop>
        </linearGradient>
        <polygon id="path-17" points="0.758 0.657912034 133.73675 0.657912034 133.73675 105.396036 0.758 105.396036"></polygon>
        <path d="M41.159,5.50891841 C44.943,2.00685993 51.079,0.256293315 57.215,0.256293315 C63.351,0.256293315 69.487,2.00685993 73.271,5.50891841 C80.841,12.5121101 65.702,28.2181716 73.271,35.220438 C81.921,43.2256718 109.969,35.220438 109.969,35.220438 C109.969,35.220438 118.619,61.1736059 109.969,69.1751387 C106.185,72.6790477 100.047,70.928481 93.91,69.1769892 C87.776,67.4264226 81.641,65.6767812 77.857,69.1751387 C70.288,76.1811061 70.288,91.8834666 77.857,98.8875836 C81.641,102.390567 87.778,100.639075 93.913,98.8875836 C100.049,97.1379422 106.185,95.3864503 109.969,98.8875836 C118.619,106.892817 109.969,132.84691 109.969,132.84691 C109.969,132.84691 81.921,124.839826 73.271,132.84691 C65.702,139.849177 80.841,155.555238 73.271,162.555654 C65.702,169.558846 48.728,169.558846 41.159,162.555654 C33.59,155.555238 48.728,139.849177 41.159,132.84691 C32.51,124.839826 4.46,132.84691 4.46,132.84691 C4.46,132.84691 -4.191,106.892817 4.46,98.8875836 C8.244,95.3864503 14.379,97.1379422 20.515,98.8875836 C26.651,100.639075 32.787,102.390567 36.57,98.8875836 C44.139,91.8834666 44.139,76.1811061 36.57,69.1751387 C32.787,65.6767812 26.652,67.4264226 20.517,69.1769892 C14.381,70.928481 8.244,72.6790477 4.46,69.1751387 C-4.191,61.1736059 4.46,35.220438 4.46,35.220438 C4.46,35.220438 32.51,43.2256718 41.159,35.220438" id="path-19"></path>
        <linearGradient x1="3.39785452%" y1="79.1336301%" x2="96.6069737%" y2="20.8687355%" id="linearGradient-21">
            <stop stop-color="#FFFFFF" offset="0%"></stop>
            <stop stop-color="#EBEBEB" offset="100%"></stop>
        </linearGradient>
        <path d="M109.901,82.5356999 L42.112431,82.5356999 C41.7531709,77.4837309 39.8830273,72.6165696 36.502,69.487872 C32.718,65.9858136 26.581,67.7363802 20.445,69.487872 C14.309,71.2375134 8.173,72.98808 4.389,69.487872 C-4.258,61.485414 4.389,35.5313209 4.389,35.5313209 C4.389,35.5313209 32.439,43.5328537 41.087,35.5313209 C48.657,28.5281292 33.52,12.8220677 41.087,5.81980127 C44.871,2.3177428 51.008,0.566250935 57.145,0.566250935 C63.28,0.566250935 69.416,2.3177428 73.2,5.81980127 C80.77,12.8220677 65.632,28.5281292 73.2,35.5313209 C81.85,43.5328537 109.901,35.5313209 109.901,35.5313209 L109.901,82.5356999" id="path-22"></path>
        <linearGradient x1="-7.57145734%" y1="91.56811%" x2="88.9131983%" y2="17.9387294%" id="linearGradient-24">
            <stop stop-color="#FFFFFF" offset="0%"></stop>
            <stop stop-color="#EBEBEB" offset="100%"></stop>
        </linearGradient>
        <polygon id="path-25" points="0.545788889 0.567500018 109.9009 0.567500018 109.9009 82.5356999 0.545788889 82.5356999"></polygon>
        <path d="M72.7732929,91.7881662 L40.6339156,91.7881662 C43.0381376,84.2173608 41.513165,74.6563032 36.059,69.6118551 C32.274,66.1097966 26.138,67.8612885 20.002,69.6118551 C13.867,71.3624217 7.73,73.1129883 3.947,69.6118551 C-4.702,61.6084718 3.947,35.6562292 3.947,35.6562292 C3.947,35.6562292 31.997,43.6586873 40.646,35.6562292 C48.215,28.651187 33.08,12.946976 40.646,5.94285907 C44.431,2.4408006 50.567,0.690233982 56.702,0.690233982 C62.838,0.690233982 68.974,2.4408006 72.758,5.94285907 C80.328,12.946976 65.19,28.651187 72.758,35.6562292 C81.408,43.6586873 109.46,35.6562292 109.46,35.6562292 C109.46,35.6562292 118.109,61.6084718 109.46,69.6118551 C105.675,73.1129883 99.539,71.3624217 93.403,69.6118551 C87.268,67.8612885 81.132,66.1097966 77.347,69.6118551 C71.8942758,74.6563032 70.3697061,84.2173608 72.7732909,91.788169" id="path-27"></path>
        <linearGradient x1="-5.32875081%" y1="93.132612%" x2="87.8783748%" y2="19.5023715%" id="linearGradient-29">
            <stop stop-color="#FFFFFF" offset="0%"></stop>
            <stop stop-color="#EBEBEB" offset="100%"></stop>
        </linearGradient>
        <polygon id="path-30" points="0.1034 0.691298016 113.3044 0.691298016 113.3044 91.7881662 0.1034 91.7881662"></polygon>
        <path d="M106.781,3.76205278 C109.665,1.09456676 114.702,0.205404751 120.14,0.205404751 C131.013,0.206329997 143.48,3.76205278 143.48,3.76205278 C143.48,3.76205278 134.83,29.7152206 143.48,37.7167534 C147.266,41.2206624 153.403,39.4700958 159.539,37.7186039 C165.674,35.9680373 171.81,34.2183959 175.594,37.7167534 C183.162,44.7227209 183.162,60.4250813 175.594,67.4291983 C171.809,70.932182 165.673,69.1806902 159.536,67.4291983 C153.401,65.6795569 147.265,63.9280651 143.48,67.4291983 C134.83,75.4344321 143.48,101.388525 143.48,101.388525 C143.48,101.388525 115.43,109.390058 106.781,101.388525 C99.213,94.3825577 114.351,78.679272 106.781,71.6751551 C99.213,64.6719634 82.238,64.6719634 74.668,71.6751551 C67.1,78.679272 82.238,94.3825577 74.668,101.388525 C66.02,109.390058 37.969,101.388525 37.969,101.388525 C37.969,101.388525 46.619,75.4344321 37.969,67.4291983 C34.185,63.9280651 28.049,65.6795569 21.913,67.4291983 C15.778,69.1806902 9.641,70.932182 5.857,67.4291983 C-1.712,60.4250813 -1.712,44.7227209 5.857,37.7167534 C9.641,34.2183959 15.776,35.9680373 21.911,37.7186039 C28.047,39.4700958 34.185,41.2206624 37.969,37.7167534 C46.619,29.7152206 37.969,3.76205278 37.969,3.76205278 C37.969,3.76205278 66.02,-4.23948004 74.668,3.76205278 C82.238,10.7652445 67.1,26.4722312 74.668,33.4735724 C82.238,40.4776894 99.213,40.4776894 106.781,33.4735724" id="path-32"></path>
        <linearGradient x1="20.8675468%" y1="96.6038859%" x2="79.1324989%" y2="3.3968133%" id="linearGradient-34">
            <stop stop-color="#FFFFFF" offset="0%"></stop>
            <stop stop-color="#EBEBEB" offset="100%"></stop>
        </linearGradient>
        <path d="M181.708669,51.0773147 L0.74658991,51.0773147 C1.10600781,46.0253437 2.97714451,41.1575136 6.36,38.026711 C10.144,34.5274283 16.279,36.2779949 22.414,38.0285615 C28.551,39.7791282 34.688,41.5296948 38.472,38.026711 C47.122,30.0251782 38.472,4.0720104 38.472,4.0720104 C38.472,4.0720104 50.939,0.51536237 61.813,0.51536237 C67.25,0.516287617 72.289,1.40544962 75.172,4.0720104 C82.742,11.0742769 67.602,26.7812636 75.172,33.7826048 C82.742,40.787647 99.716,40.787647 107.284,33.7826048 C114.853,26.7812636 99.716,11.0742769 107.284,4.0720104 C110.168,1.40452438 115.205,0.51536237 120.643,0.51536237 C131.516,0.51536237 143.983,4.0720104 143.983,4.0720104 C143.983,4.0720104 135.334,30.0251782 143.983,38.026711 C147.767,41.5296948 153.904,39.7791282 160.042,38.0285615 C166.176,36.2779949 172.311,34.5274283 176.096,38.026711 C179.478409,41.1575136 181.349298,46.0253437 181.708669,51.0773147" id="path-35"></path>
        <linearGradient x1="20.8662467%" y1="96.639316%" x2="79.1310379%" y2="3.43215188%" id="linearGradient-37">
            <stop stop-color="#FFFFFF" offset="0%"></stop>
            <stop stop-color="#EBEBEB" offset="100%"></stop>
        </linearGradient>
        <polygon id="path-38" points="0.6827 0.515732469 181.7722 0.515732469 181.7722 51.0773147 0.6827 51.0773147"></polygon>
        <path d="M181.903767,53.8530546 L0.86123333,53.8530546 C0.603649531,47.8225396 2.48790509,41.6340208 6.514,37.906429 C10.298,34.4071462 16.432,36.1577129 22.567,37.9082795 C28.704,39.6597713 34.841,41.4112632 38.626,37.906429 C47.276,29.9058214 38.626,3.95080309 38.626,3.95080309 C38.626,3.95080309 66.677,-4.05072972 75.325,3.95080309 C82.895,10.95492 67.757,26.6609815 75.325,33.663248 C82.895,40.6673649 99.869,40.6673649 107.438,33.663248 C115.007,26.6609815 99.869,10.95492 107.438,3.95080309 C110.322,1.28424232 115.359,0.394155062 120.797,0.394155062 C131.67,0.395080309 144.137,3.95080309 144.137,3.95080309 C144.137,3.95080309 135.487,29.9058214 144.137,37.906429 C147.922,41.4112632 154.059,39.6597713 160.196,37.9082795 C166.331,36.1577129 172.465,34.4071462 176.251,37.906429 C180.277095,41.6340208 182.16135,47.8225396 181.903767,53.8530546" id="path-40"></path>
        <linearGradient x1="20.8668049%" y1="96.6436677%" x2="79.1319983%" y2="3.43741842%" id="linearGradient-42">
            <stop stop-color="#FFFFFF" offset="0%"></stop>
            <stop stop-color="#EBEBEB" offset="100%"></stop>
        </linearGradient>
        <polygon id="path-43" points="0.837 0.395028906 181.9265 0.395028906 181.9265 53.8530546 0.837 53.8530546"></polygon>
        <path d="M71.7823444,82.5356999 L41.7203971,82.5356999 C41.3609471,77.4837309 39.4898148,72.6165696 36.107,69.487872 C32.323,65.9858136 26.187,67.7363802 20.051,69.487872 C13.916,71.2375134 7.779,72.98808 3.995,69.487872 C-4.655,61.485414 3.995,35.5313209 3.995,35.5313209 C3.995,35.5313209 32.044,43.5328537 40.694,35.5313209 C48.263,28.5281292 33.123,12.8220677 40.694,5.81980127 C44.479,2.3177428 50.614,0.566250935 56.75,0.566250935 C62.886,0.566250935 69.022,2.3177428 72.807,5.81980127 C80.375,12.8220677 65.237,28.5281292 72.807,35.5313209 C81.456,43.5328537 109.506,35.5313209 109.506,35.5313209 C109.506,35.5313209 118.156,61.485414 109.506,69.487872 C105.72,72.98808 99.585,71.2375134 93.451,69.487872 C87.315,67.7363802 81.18,65.9858136 77.395,69.487872 C74.0126321,72.6165696 72.1417469,77.4837309 71.7823444,82.5356999" id="path-45"></path>
        <linearGradient x1="-5.38461638%" y1="93.1382426%" x2="87.8225345%" y2="19.5092187%" id="linearGradient-47">
            <stop stop-color="#FFFFFF" offset="0%"></stop>
            <stop stop-color="#EBEBEB" offset="100%"></stop>
        </linearGradient>
        <polygon id="path-48" points="0.1509 0.567500018 113.350344 0.567500018 113.350344 82.5356999 0.1509 82.5356999"></polygon>
        <path d="M72.620086,82.5356999 L42.5573971,82.5356999 C42.1979471,77.4837309 40.3268148,72.6165696 36.944,69.487872 C33.159,65.9858136 27.023,67.7363802 20.887,69.487872 C14.751,71.2375134 8.616,72.98808 4.832,69.487872 C-3.818,61.485414 4.832,35.5313209 4.832,35.5313209 C4.832,35.5313209 32.88,43.5328537 41.53,35.5313209 C49.1,28.5281292 33.96,12.8220677 41.53,5.81980127 C45.315,2.3177428 51.451,0.566250935 57.587,0.566250935 C63.723,0.566250935 69.859,2.3177428 73.644,5.81980127 C81.212,12.8220677 66.074,28.5281292 73.644,35.5313209 C82.293,43.5328537 110.343,35.5313209 110.343,35.5313209 C110.343,35.5313209 118.993,61.485414 110.343,69.487872 C106.558,72.98808 100.422,71.2375134 94.287,69.487872 C88.152,67.7363802 82.016,65.9858136 78.232,69.487872 C74.850079,72.6165696 72.979441,77.4837309 72.620086,82.5356999" id="path-50"></path>
        <linearGradient x1="-5.54428968%" y1="92.9637834%" x2="87.6628612%" y2="19.3347595%" id="linearGradient-52">
            <stop stop-color="#FFFFFF" offset="0%"></stop>
            <stop stop-color="#EBEBEB" offset="100%"></stop>
        </linearGradient>
        <polygon id="path-53" points="0.9873 0.567500018 114.1873 0.567500018 114.1873 82.5356999 0.9873 82.5356999"></polygon>
        <path d="M107.271,3.77038 C110.155,1.10196873 115.192,0.211881477 120.63,0.211881477 C131.503,0.212806724 143.97,3.77038 143.97,3.77038 C143.97,3.77038 135.321,29.7226226 143.97,37.7250806 C147.755,41.2280644 153.892,39.4765725 160.028,37.7260059 C166.163,35.974514 172.299,34.2239474 176.085,37.7250806 C183.653,44.7301228 183.653,60.4343338 176.085,67.4384508 C172.299,70.939584 166.163,69.1890174 160.027,67.4384508 C153.892,65.6878842 147.755,63.9363923 143.97,67.4384508 C135.321,75.4409088 143.97,101.394077 143.97,101.394077 C143.97,101.394077 115.921,109.398385 107.271,101.394077 C99.702,94.3899597 114.841,78.6838982 107.271,71.6807065 C99.702,64.6765896 82.728,64.6765896 75.159,71.6807065 C67.59,78.6838982 82.728,94.3899597 75.159,101.394077 C66.51,109.398385 38.46,101.394077 38.46,101.394077 C38.46,101.394077 47.109,75.4409088 38.46,67.4384508 C34.675,63.9363923 28.539,65.6878842 22.402,67.4384508 C16.267,69.1890174 10.131,70.939584 6.347,67.4384508 C-1.222,60.4343338 -1.222,44.7301228 6.347,37.7250806 C10.131,34.2239474 16.267,35.974514 22.402,37.7260059 C28.539,39.4765725 34.675,41.2280644 38.46,37.7250806 C47.109,29.7226226 38.46,3.77038 38.46,3.77038 C38.46,3.77038 66.51,-4.2348538 75.159,3.77038 C82.728,10.7726465 67.59,26.4796332 75.159,33.4800491 C82.728,40.4823156 99.702,40.4823156 107.271,33.4800491" id="path-55"></path>
        <linearGradient x1="20.8686395%" y1="96.5974178%" x2="79.1324525%" y2="3.39192715%" id="linearGradient-57">
            <stop stop-color="#FFFFFF" offset="0%"></stop>
            <stop stop-color="#EBEBEB" offset="100%"></stop>
        </linearGradient>
        <path d="M40.646,5.51632038 C44.431,2.0161124 50.567,0.264620535 56.702,0.264620535 C62.838,0.264620535 68.974,2.0161124 72.758,5.51632038 C80.328,12.5204373 65.19,28.2246483 72.758,35.2287653 C81.408,43.2312233 109.46,35.2287653 109.46,35.2287653 C109.46,35.2287653 118.109,61.1810078 109.46,69.1834659 C105.675,72.6864496 99.539,70.9349578 93.402,69.1843911 C87.267,67.4328993 81.131,65.6823327 77.347,69.1834659 C69.778,76.1885081 69.778,91.8927191 77.347,98.896836 C81.131,102.397969 87.267,100.647403 93.402,98.896836 C99.539,97.1462694 105.675,95.3947775 109.46,98.896836 C118.109,106.899294 109.46,132.852462 109.46,132.852462 C109.46,132.852462 81.408,124.848153 72.758,132.852462 C65.19,139.854728 80.328,155.559865 72.758,162.564907 C65.19,169.567173 48.215,169.567173 40.646,162.564907 C33.08,155.559865 48.215,139.854728 40.646,132.852462 C31.997,124.848153 3.947,132.852462 3.947,132.852462 C3.947,132.852462 -4.702,106.899294 3.947,98.896836 C7.731,95.3947775 13.868,97.1462694 20.003,98.896836 C26.139,100.647403 32.274,102.397969 36.059,98.896836 C43.63,91.8927191 43.63,76.1885081 36.059,69.1834659 C32.274,65.6823327 26.139,67.4328993 20.004,69.1843911 C13.868,70.9349578 7.731,72.6864496 3.947,69.1834659 C-4.702,61.1810078 3.947,35.2287653 3.947,35.2287653 C3.947,35.2287653 31.997,43.2312233 40.646,35.2287653" id="path-58"></path>
        <linearGradient x1="3.39467037%" y1="79.1285509%" x2="96.6022476%" y2="20.863328%" id="linearGradient-60">
            <stop stop-color="#FFFFFF" offset="0%"></stop>
            <stop stop-color="#EBEBEB" offset="100%"></stop>
        </linearGradient>
        <path d="M0.758,131.038699 L0.758,37.9883943 C9.67611517,39.5358821 21.9265082,40.5233031 27.136,35.7015663 C34.705,28.6974493 19.568,12.9913879 27.136,5.98819616 C30.921,2.48706293 37.057,0.735571067 43.192,0.735571067 C49.329,0.735571067 55.465,2.48706293 59.249,5.98819616 C66.818,12.9913879 51.68,28.6974493 59.249,35.7015663 C67.898,43.7058748 95.947,35.7015663 95.947,35.7015663 C95.947,35.7015663 104.596,61.6519584 95.947,69.6553417 C92.162,73.1583254 86.025,71.4077588 79.889,69.6571922 C73.754,67.9066256 67.619,66.1569842 63.836,69.6553417 C56.266,76.6594586 56.266,92.3645948 63.836,99.3687118 C67.619,102.87077 73.755,101.120204 79.891,99.3687118 C86.026,97.6181452 92.162,95.8675786 95.947,99.3687118 C104.596,107.373946 95.947,133.325263 95.947,133.325263 C95.947,133.325263 67.898,125.32188 59.249,133.325263 C51.68,140.330305 66.818,156.032666 59.249,163.036783 C51.68,170.039049 34.705,170.039049 27.136,163.036783 C19.568,156.032666 34.705,140.330305 27.136,133.325263 C21.9265082,128.504083 9.67611517,129.49139 0.758,131.038699" id="path-61"></path>
        <linearGradient x1="2.05844167%" y1="80.3656202%" x2="98.544273%" y2="22.1011572%" id="linearGradient-63">
            <stop stop-color="#FFFFFF" offset="0%"></stop>
            <stop stop-color="#EBEBEB" offset="100%"></stop>
        </linearGradient>
        <polygon id="path-64" points="0.758 0.735524805 99.791 0.735524805 99.791 168.288205 0.758 168.288205"></polygon>
        <path d="M0.758,103.680905 L0.758,1.48328759 C9.67611517,-0.0643790032 21.9265082,-1.0519142 27.136,3.77038 C34.705,10.7726465 19.568,26.4796332 27.136,33.4800491 C34.705,40.4823156 51.68,40.4823156 59.249,33.4800491 C66.818,26.4796332 51.68,10.7726465 59.249,3.77038 C62.133,1.10196873 67.17,0.211881477 72.607,0.211881477 C83.48,0.212806724 95.947,3.77038 95.947,3.77038 C95.947,3.77038 87.298,29.7226226 95.947,37.7250806 C99.731,41.2280644 105.868,39.4765725 112.004,37.7260059 C118.139,35.974514 124.274,34.2239474 128.059,37.7250806 C135.63,44.7301228 135.63,60.4343338 128.059,67.4384508 C124.274,70.939584 118.139,69.1890174 112.003,67.4384508 C105.868,65.6878842 99.731,63.9363923 95.947,67.4384508 C87.298,75.4409088 95.947,101.394077 95.947,101.394077 C95.947,101.394077 67.898,109.398385 59.249,101.394077 C51.68,94.3899597 66.818,78.6838982 59.249,71.6807065 C51.68,64.6765896 34.705,64.6765896 27.136,71.6807065 C19.568,78.6838982 34.705,94.3899597 27.136,101.394077" id="path-66"></path>
        <linearGradient x1="6.89181512%" y1="105.320771%" x2="80.5206999%" y2="12.1152798%" id="linearGradient-68">
            <stop stop-color="#FFFFFF" offset="0%"></stop>
            <stop stop-color="#EBEBEB" offset="100%"></stop>
        </linearGradient>
        <polygon id="path-69" points="0.758 0.212405784 133.73675 0.212405784 133.73675 104.951455 0.758 104.951455"></polygon>
        <path d="M41.159,5.98819616 C44.943,2.48706293 51.079,0.735571067 57.215,0.735571067 C63.351,0.735571067 69.487,2.48706293 73.271,5.98819616 C80.841,12.9913879 65.702,28.6974493 73.271,35.7015663 C81.921,43.7058748 109.97,35.7015663 109.97,35.7015663 C109.97,35.7015663 118.619,61.6519584 109.97,69.6553417 C106.185,73.1583254 100.048,71.4077588 93.911,69.6571922 C87.776,67.9066256 81.641,66.1569842 77.857,69.6553417 C70.288,76.6594586 70.288,92.3645948 77.857,99.3687118 C81.641,102.87077 87.777,101.120204 93.913,99.3687118 C100.049,97.6181452 106.185,95.8675786 109.969,99.3687118 C118.619,107.373946 109.969,133.325263 109.969,133.325263 C109.969,133.325263 81.921,125.32188 73.271,133.325263 C65.702,140.330305 80.841,156.032666 73.271,163.036783 C65.702,170.039049 48.728,170.039049 41.159,163.036783 C33.59,156.032666 48.728,140.330305 41.159,133.325263 C32.51,125.32188 4.46,133.325263 4.46,133.325263 C4.46,133.325263 -4.191,107.373946 4.46,99.3687118 C8.244,95.8675786 14.379,97.6181452 20.515,99.3687118 C26.651,101.120204 32.787,102.87077 36.57,99.3687118 C44.139,92.3645948 44.139,76.6594586 36.57,69.6553417 C32.787,66.1569842 26.651,67.9066256 20.517,69.6571922 C14.38,71.4077588 8.244,73.1583254 4.46,69.6553417 C-4.191,61.6519584 4.46,35.7015663 4.46,35.7015663 C4.46,35.7015663 32.51,43.7058748 41.159,35.7015663" id="path-71"></path>
        <linearGradient x1="3.39783785%" y1="79.1231441%" x2="96.6064524%" y2="20.8586811%" id="linearGradient-73">
            <stop stop-color="#FFFFFF" offset="0%"></stop>
            <stop stop-color="#EBEBEB" offset="100%"></stop>
        </linearGradient>
        <path d="M106.758,4.24318102 C109.642,1.57476976 114.68,0.685607749 120.118,0.685607749 C130.992,0.686532996 143.46,4.24318102 143.46,4.24318102 C143.46,4.24318102 134.809,30.1935731 143.46,38.1969564 C147.244,41.6999401 153.381,39.9493735 159.517,38.1988069 C165.651,36.4482403 171.787,34.6985989 175.57,38.1969564 C183.139,45.2010734 183.139,60.9062096 175.57,67.9103265 C171.787,71.412385 165.651,69.6618184 159.515,67.9103265 C153.379,66.1597599 147.244,64.4091933 143.46,67.9103265 C134.809,75.9155603 143.46,101.866878 143.46,101.866878 C143.46,101.866878 115.408,109.871186 106.758,101.866878 C99.19,94.8646112 114.328,79.1585498 106.758,72.1553581 C99.19,65.1521664 82.215,65.1521664 74.646,72.1553581 C67.08,79.1585498 82.215,94.8646112 74.646,101.866878 C65.997,109.871186 37.947,101.866878 37.947,101.866878 C37.947,101.866878 46.596,75.9155603 37.947,67.9103265 C34.162,64.4091933 28.026,66.1597599 21.891,67.9103265 C15.755,69.6618184 9.619,71.412385 5.836,67.9103265 C-1.734,60.9062096 -1.734,45.2010734 5.836,38.1969564 C9.619,34.6985989 15.754,36.4482403 21.889,38.1988069 C28.025,39.9493735 34.162,41.6999401 37.947,38.1969564 C46.596,30.1935731 37.947,4.24318102 37.947,4.24318102 C37.947,4.24318102 65.997,-3.76112753 74.646,4.24318102 C82.215,11.2454475 67.08,26.9505837 74.646,33.9556259 C82.215,40.9578924 99.19,40.9578924 106.758,33.9556259" id="path-74"></path>
        <linearGradient x1="20.8667878%" y1="96.5876705%" x2="79.1326564%" y2="3.37935482%" id="linearGradient-76">
            <stop stop-color="#FFFFFF" offset="0%"></stop>
            <stop stop-color="#EBEBEB" offset="100%"></stop>
        </linearGradient>
        <path d="M0.758,131.017815 L0.758,37.9668493 C9.67611517,39.5141582 21.9265082,40.5014651 27.136,35.6802856 C34.705,28.6770939 19.568,12.9701072 27.136,5.96599024 C30.921,2.4667075 37.057,0.717066134 43.192,0.717066134 C49.329,0.717066134 55.465,2.4667075 59.249,5.96599024 C66.818,12.9738082 51.68,28.6770939 59.249,35.6802856 C67.898,43.6836689 95.947,35.6802856 95.947,35.6802856 C95.947,35.6802856 104.596,61.6316029 95.947,69.6386872 C92.162,73.1398205 86.027,71.3901791 79.892,69.6386872 C73.756,67.8871954 67.619,66.1357035 63.836,69.6386872 C56.266,76.6418789 56.266,92.3433142 63.836,99.3483564 C67.619,102.84949 73.755,101.098923 79.89,99.3483564 C86.026,97.5968645 92.162,95.8462979 95.947,99.3483564 C104.596,107.35359 95.947,133.304908 95.947,133.304908 C95.947,133.304908 67.898,125.299674 59.249,133.304908 C51.68,140.307174 66.818,156.014161 59.249,163.014577 C51.68,170.016843 34.705,170.016843 27.136,163.014577 C19.568,156.014161 34.705,140.307174 27.136,133.304908 C21.9265082,128.482613 9.67611517,129.470149 0.758,131.017815" id="path-77"></path>
        <linearGradient x1="1.88698017%" y1="80.3094119%" x2="98.3728603%" y2="22.0436324%" id="linearGradient-79">
            <stop stop-color="#FFFFFF" offset="0%"></stop>
            <stop stop-color="#EBEBEB" offset="100%"></stop>
        </linearGradient>
        <polygon id="path-80" points="0.758 0.717019872 99.791 0.717019872 99.791 168.265768 0.758 168.265768"></polygon>
        <path d="M37.947,4.22190035 C37.947,4.22190035 50.413,0.665252323 61.288,0.665252323 C66.724,0.665252323 71.763,1.55441433 74.646,4.22190035 C82.215,11.2250921 67.08,26.9302283 74.646,33.9343452 C82.215,40.9366117 99.19,40.9366117 106.758,33.9343452 C114.328,26.9302283 99.19,11.2250921 106.758,4.22190035 C109.642,1.55348908 114.68,0.665252323 120.118,0.665252323 C130.992,0.665252323 143.46,4.22190035 143.46,4.22190035 C143.46,4.22190035 134.809,30.1732177 143.46,38.180302 C147.243,41.6814352 153.378,39.9317938 159.513,38.180302 C165.65,36.4288101 171.786,34.6773183 175.57,38.180302 C183.139,45.1834937 183.139,60.8849289 175.57,67.8899711 C171.787,71.3911043 165.651,69.6405377 159.516,67.8899711 C153.38,66.1384793 147.244,64.3879126 143.46,67.8899711 C134.809,75.8952049 143.46,101.846522 143.46,101.846522 C143.46,101.846522 115.408,109.84898 106.758,101.846522 C99.19,94.8424053 114.328,79.1381943 106.758,72.1340774 C99.19,65.1318109 82.215,65.1318109 74.646,72.1340774 C67.08,79.1381943 82.215,94.8424053 74.646,101.846522 C65.997,109.84898 37.947,101.846522 37.947,101.846522 C37.947,101.846522 46.596,75.8952049 37.947,67.8899711 C34.162,64.3879126 28.025,66.1384793 21.889,67.8899711 C15.755,69.6405377 9.619,71.3911043 5.836,67.8899711 C-1.734,60.8849289 -1.734,45.1834937 5.836,38.180302 C9.619,34.6773183 15.756,36.4288101 21.892,38.180302 C28.027,39.9317938 34.162,41.6814352 37.947,38.180302" id="path-82"></path>
        <linearGradient x1="20.8667878%" y1="96.6078636%" x2="79.1326859%" y2="3.39876882%" id="linearGradient-84">
            <stop stop-color="#FFFFFF" offset="0%"></stop>
            <stop stop-color="#EBEBEB" offset="100%"></stop>
        </linearGradient>
    </defs>
    <g id="Page-1" stroke="none" stroke-width="1" fill="none" fill-rule="evenodd">
        <g id="Knack---Homepage" transform="translate(0.000000, -686.000000)">
            <g id="For-Professionals" transform="translate(0.000000, 686.000000)">
                <g id="green_bg" transform="translate(800.500000, 341.000000) scale(-1, 1) translate(-800.500000, -341.000000) ">
                    <mask id="mask-2" fill="white">
                        <use xlink:href="#path-1"></use>
                    </mask>
                    <use id="Mask" fill="#0eaf81" xlink:href="#path-1"></use>
                    <g id="Group-327" opacity="0.583295037" style="mix-blend-mode: multiply;" mask="url(#mask-2)">
                        <g transform="translate(0.000000, 88.000000)">
                            <g id="Group-201" transform="translate(163.000000, 324.761565)">
                                <g id="Group-198">
                                    <mask id="mask-4" fill="white">
                                        <use xlink:href="#path-3"></use>
                                    </mask>
                                    <g id="Clip-197"></g>
                                    <path d="M38.46,4.21542362 C38.46,4.21542362 47.109,30.1695167 38.46,38.1701243 C34.675,41.673108 28.538,39.9216161 22.401,38.1710495 C16.266,36.4204829 10.131,34.6699163 6.347,38.1701243 C-1.222,45.1751665 -1.222,60.8793774 6.347,67.8834944 C10.131,71.3855529 16.267,69.634061 22.403,67.8834944 C28.539,66.1329278 34.675,64.3814359 38.46,67.8834944 C47.109,75.8850272 38.46,101.838195 38.46,101.838195 C38.46,101.838195 66.51,109.843429 75.159,101.838195 C82.728,94.8359286 67.59,79.1298671 75.159,72.1266754 C82.728,65.1225585 99.702,65.1225585 107.271,72.1266754 C114.841,79.1298671 99.702,94.8359286 107.271,101.838195 C115.921,109.843429 143.969,101.838195 143.969,101.838195 C143.969,101.838195 135.32,75.8850272 143.969,67.8834944 C147.753,64.3814359 153.89,66.1329278 160.026,67.8834944 C166.162,69.634061 172.299,71.3855529 176.085,67.8834944 C183.653,60.8793774 183.653,45.1751665 176.085,38.1701243 C172.299,34.6699163 166.163,36.4204829 160.027,38.1710495 C153.891,39.9216161 147.754,41.673108 143.969,38.1701243 C135.32,30.1695167 143.969,4.21542362 143.969,4.21542362 C143.969,4.21542362 131.503,0.658775597 120.63,0.658775597 C115.192,0.65785035 110.155,1.54701236 107.271,4.21542362 C99.702,11.2186153 114.841,26.9246768 107.271,33.9278685 C99.702,40.9310602 82.728,40.9310602 75.159,33.9278685 C67.59,26.9246768 82.728,11.2186153 75.159,4.21542362 C72.276,1.5479376 67.237,0.65785035 61.801,0.65785035 C50.927,0.65785035 38.46,4.21542362 38.46,4.21542362" id="Fill-196" fill="url(#linearGradient-5)" mask="url(#mask-4)"></path>
                                </g>
                                <path d="M38.4604,4.21597877 C38.4604,4.21597877 47.1094,30.1682214 38.4604,38.1706794 C30.8904,45.1747964 13.9164,31.1674877 6.3474,38.1706794 C-1.2216,45.1747964 -1.2216,60.8799326 6.3474,67.8831243 C13.9164,74.886316 30.8904,60.8799326 38.4604,67.8831243 C47.1094,75.8846571 38.4604,101.837825 38.4604,101.837825 C38.4604,101.837825 66.5104,109.843984 75.1584,101.837825 C82.7284,94.8355585 67.5904,79.129497 75.1584,72.1263053 C82.7284,65.1231136 99.7024,65.1231136 107.2714,72.1263053 C114.8404,79.129497 99.7024,94.8355585 107.2714,101.837825 C115.9204,109.843984 143.9694,101.837825 143.9694,101.837825 C143.9694,101.837825 135.3204,75.8846571 143.9694,67.8831243 C151.5384,60.8799326 168.5144,74.886316 176.0844,67.8831243 C183.6524,60.8799326 183.6524,45.1747964 176.0844,38.1706794 C168.5144,31.1674877 151.5384,45.1747964 143.9694,38.1706794 C135.3204,30.1682214 143.9694,4.21597877 143.9694,4.21597877 C143.9694,4.21597877 115.9204,-3.79018028 107.2714,4.21597877 C99.7024,11.2182452 114.8404,26.9243067 107.2714,33.9284236 C99.7024,40.9306901 82.7284,40.9306901 75.1584,33.9284236 C67.5904,26.9243067 82.7284,11.2182452 75.1584,4.21597877 C66.5104,-3.79018028 38.4604,4.21597877 38.4604,4.21597877 Z" id="Stroke-199" stroke="#F2F2F2" stroke-width="0.264"></path>
                            </g>
                            <g id="Group-207" transform="translate(92.000000, 293.303180)">
                                <g id="Group-204">
                                    <mask id="mask-7" fill="white">
                                        <use xlink:href="#path-6"></use>
                                    </mask>
                                    <g id="Clip-203"></g>
                                    <path d="M40.646,5.96228925 C33.08,12.9645557 48.215,28.6706172 40.646,35.6738089 C31.997,43.6771922 3.947,35.6738089 3.947,35.6738089 C3.947,35.6738089 -4.702,61.627902 3.947,69.6285095 C7.731,73.1314933 13.868,71.3800014 20.004,69.6294348 C26.139,67.8788682 32.274,66.1283015 36.059,69.6285095 C43.63,76.6335517 43.63,92.3377627 36.059,99.3418796 C32.274,102.843938 26.139,101.092446 20.003,99.3418796 C13.867,97.591313 7.731,95.8398212 3.947,99.3418796 C-4.702,107.343412 3.947,133.29658 3.947,133.29658 C3.947,133.29658 31.997,125.295047 40.646,133.29658 C48.215,140.299772 33.08,156.006759 40.646,163.0081 C48.215,170.012217 65.19,170.012217 72.758,163.0081 C80.328,156.006759 65.19,140.299772 72.758,133.29658 C81.408,125.295047 109.46,133.29658 109.46,133.29658 C109.46,133.29658 118.109,107.343412 109.46,99.3418796 C105.675,95.8398212 99.539,97.591313 93.403,99.3418796 C87.267,101.092446 81.132,102.843938 77.347,99.3418796 C69.778,92.3377627 69.778,76.6335517 77.347,69.6285095 C81.131,66.1283015 87.266,67.8788682 93.401,69.6294348 C99.538,71.3800014 105.675,73.1314933 109.46,69.6285095 C118.109,61.627902 109.46,35.6738089 109.46,35.6738089 C109.46,35.6738089 81.408,43.6771922 72.758,35.6738089 C65.19,28.6706172 80.328,12.9645557 72.758,5.96228925 C68.974,2.46115602 62.838,0.710589408 56.702,0.710589408 C50.567,0.710589408 44.431,2.46115602 40.646,5.96228925" id="Fill-202" fill="url(#linearGradient-8)" mask="url(#mask-7)"></path>
                                </g>
                                <path d="M3.9473,133.29695 C3.9473,133.29695 31.9973,125.295418 40.6463,133.29695 C48.2153,140.299217 33.0803,156.006204 40.6463,163.007545 C48.2153,170.012587 65.1903,170.012587 72.7583,163.007545 C80.3283,156.006204 65.1903,140.299217 72.7583,133.29695 C81.4083,125.295418 109.4603,133.29695 109.4603,133.29695 C109.4603,133.29695 118.1093,107.343783 109.4603,99.3413245 C101.8903,92.3372075 84.9163,106.345441 77.3473,99.3413245 C69.7783,92.3372075 69.7783,76.6329966 77.3473,69.6279544 C84.9163,62.6266132 101.8903,76.6329966 109.4603,69.6279544 C118.1093,61.6273468 109.4603,35.674179 109.4603,35.674179 C109.4603,35.674179 81.4083,43.6775623 72.7583,35.674179 C65.1903,28.6709873 80.3283,12.9640006 72.7583,5.96265935 C65.1903,-1.04053235 48.2153,-1.04053235 40.6463,5.96265935 C33.0803,12.9640006 48.2153,28.6709873 40.6463,35.674179 C31.9973,43.6775623 3.9473,35.674179 3.9473,35.674179 C3.9473,35.674179 -4.7017,61.6273468 3.9473,69.6279544 C11.5163,76.6329966 28.4913,62.6266132 36.0593,69.6279544 C43.6293,76.6329966 43.6293,92.3372075 36.0593,99.3413245 C28.4913,106.345441 11.5163,92.3372075 3.9473,99.3413245 C-4.7017,107.343783 3.9473,133.29695 3.9473,133.29695 Z" id="Stroke-205" stroke="#F2F2F2" stroke-width="0.264"></path>
                            </g>
                            <g id="Group-214" transform="translate(0.000000, 391.379322)">
                                <g id="Group-210">
                                    <mask id="mask-10" fill="white">
                                        <use xlink:href="#path-9"></use>
                                    </mask>
                                    <g id="Clip-209"></g>
                                    <path d="M27.136,5.50891841 C19.568,12.5121101 34.705,28.2181716 27.136,35.220438 C18.488,43.2256718 -9.563,35.220438 -9.563,35.220438 L-9.563,132.84691 C-9.563,132.84691 18.488,124.839826 27.136,132.84691 C34.705,139.849177 19.568,155.555238 27.136,162.555654 C34.705,169.558846 51.68,169.558846 59.249,162.555654 C66.818,155.555238 51.68,139.849177 59.249,132.84691 C67.898,124.839826 95.947,132.84691 95.947,132.84691 C95.947,132.84691 104.596,106.892817 95.947,98.8875836 C92.162,95.3864503 86.027,97.1379422 79.891,98.8875836 C73.756,100.639075 67.619,102.390567 63.836,98.8875836 C56.266,91.8834666 56.266,76.1811061 63.836,69.1751387 C67.618,65.6767812 73.754,67.4264226 79.888,69.1769892 C86.025,70.928481 92.162,72.6790477 95.947,69.1751387 C104.596,61.1736059 95.947,35.220438 95.947,35.220438 C95.947,35.220438 67.898,43.2256718 59.249,35.220438 C51.68,28.2181716 66.818,12.5121101 59.249,5.50891841 C55.465,2.00685993 49.329,0.256293315 43.192,0.256293315 C37.057,0.256293315 30.921,2.00685993 27.136,5.50891841" id="Fill-208" fill="url(#linearGradient-11)" mask="url(#mask-10)"></path>
                                </g>
                                <g id="Group-213">
                                    <mask id="mask-13" fill="white">
                                        <use xlink:href="#path-12"></use>
                                    </mask>
                                    <g id="Clip-212"></g>
                                    <path d="M-9.563,132.847003 C-9.563,132.847003 18.487,124.840844 27.135,132.847003 C34.706,139.848344 19.567,155.555331 27.135,162.554822 C34.706,169.559864 51.68,169.559864 59.25,162.554822 C66.818,155.555331 51.68,139.848344 59.25,132.847003 C67.898,124.840844 95.947,132.847003 95.947,132.847003 C95.947,132.847003 104.596,106.891985 95.947,98.8886013 C88.378,91.8854096 71.404,105.890868 63.835,98.8886013 C56.266,91.8854096 56.266,76.1821239 63.835,69.1770817 C71.404,62.1748152 88.378,76.1821239 95.947,69.1770817 C104.596,61.1727731 95.947,35.2196053 95.947,35.2196053 C95.947,35.2196053 67.898,43.2266896 59.25,35.2196053 C51.68,28.2182641 66.818,12.5112774 59.25,5.50901093 C51.68,-1.49418077 34.706,-1.49418077 27.135,5.50901093 C19.567,12.5112774 34.706,28.2182641 27.135,35.2196053 C18.487,43.2266896 -9.563,35.2196053 -9.563,35.2196053 L-9.563,132.847003 Z" id="Stroke-211" stroke="#F2F2F2" stroke-width="0.264" mask="url(#mask-13)"></path>
                                </g>
                            </g>
                            <g id="Group-221" transform="translate(0.000000, 324.761565)">
                                <g id="Group-217">
                                    <mask id="mask-15" fill="white">
                                        <use xlink:href="#path-14"></use>
                                    </mask>
                                    <g id="Clip-216"></g>
                                    <path d="M-9.563,4.21542362 L-9.563,101.838195 C-9.563,101.838195 18.488,109.843429 27.136,101.838195 C34.705,94.8359286 19.568,79.1298671 27.136,72.1266754 C34.705,65.1225585 51.68,65.1225585 59.249,72.1266754 C66.818,79.1298671 51.68,94.8359286 59.249,101.838195 C67.898,109.843429 95.947,101.838195 95.947,101.838195 C95.947,101.838195 87.298,75.8850272 95.947,67.8834944 C99.73,64.3814359 105.867,66.1329278 112.003,67.8834944 C118.138,69.634061 124.274,71.3855529 128.059,67.8834944 C135.63,60.8793774 135.63,45.1751665 128.059,38.1701243 C124.274,34.6699163 118.14,36.4204829 112.005,38.1710495 C105.868,39.9216161 99.731,41.673108 95.947,38.1701243 C87.298,30.1695167 95.947,4.21542362 95.947,4.21542362 C95.947,4.21542362 83.48,0.658775597 72.607,0.658775597 C67.17,0.65785035 62.133,1.54701236 59.249,4.21542362 C51.68,11.2186153 66.818,26.9246768 59.249,33.9278685 C51.68,40.9310602 34.705,40.9310602 27.136,33.9278685 C19.568,26.9246768 34.705,11.2186153 27.136,4.21542362 C24.253,1.5479376 19.214,0.65785035 13.778,0.65785035 C2.904,0.65785035 -9.563,4.21542362 -9.563,4.21542362" id="Fill-215" fill="url(#linearGradient-16)" mask="url(#mask-15)"></path>
                                </g>
                                <g id="Group-220">
                                    <mask id="mask-18" fill="white">
                                        <use xlink:href="#path-17"></use>
                                    </mask>
                                    <g id="Clip-219"></g>
                                    <path d="M-9.563,101.838565 C-9.563,101.838565 18.487,109.842874 27.135,101.838565 C34.706,94.8362987 19.567,79.1302372 27.135,72.1270455 C34.706,65.1220033 51.68,65.1220033 59.25,72.1270455 C66.818,79.1302372 51.68,94.8362987 59.25,101.838565 C67.898,109.842874 95.947,101.838565 95.947,101.838565 C95.947,101.838565 87.298,75.8853973 95.947,67.8829392 C103.517,60.8788223 120.491,74.8870562 128.06,67.8829392 C135.629,60.8788223 135.629,45.1746113 128.06,38.1695691 C120.491,31.1682279 103.517,45.1746113 95.947,38.1695691 C87.298,30.1689616 95.947,4.21579372 95.947,4.21579372 C95.947,4.21579372 67.898,-3.78944008 59.25,4.21579372 C51.68,11.2189854 66.818,26.9250469 59.25,33.9291638 C51.68,40.9314303 34.706,40.9314303 27.135,33.9291638 C19.567,26.9250469 34.706,11.2189854 27.135,4.21579372 C18.487,-3.78944008 -9.563,4.21579372 -9.563,4.21579372 L-9.563,101.838565 Z" id="Stroke-218" stroke="#F2F2F2" stroke-width="0.264" mask="url(#mask-18)"></path>
                                </g>
                            </g>
                            <g id="Group-227" transform="translate(197.000000, 391.379322)">
                                <g id="Group-224">
                                    <mask id="mask-20" fill="white">
                                        <use xlink:href="#path-19"></use>
                                    </mask>
                                    <g id="Clip-223"></g>
                                    <path d="M41.159,5.50891841 C33.59,12.5121101 48.728,28.2181716 41.159,35.220438 C32.51,43.2256718 4.46,35.220438 4.46,35.220438 C4.46,35.220438 -4.191,61.1736059 4.46,69.1751387 C8.244,72.6790477 14.381,70.928481 20.517,69.1769892 C26.652,67.4264226 32.787,65.6767812 36.57,69.1751387 C44.139,76.1811061 44.139,91.8834666 36.57,98.8875836 C32.787,102.390567 26.651,100.639075 20.515,98.8875836 C14.379,97.1379422 8.244,95.3864503 4.46,98.8875836 C-4.191,106.892817 4.46,132.84691 4.46,132.84691 C4.46,132.84691 32.51,124.839826 41.159,132.84691 C48.728,139.849177 33.59,155.555238 41.159,162.555654 C48.728,169.558846 65.702,169.558846 73.271,162.555654 C80.841,155.555238 65.702,139.849177 73.271,132.84691 C81.921,124.839826 109.969,132.84691 109.969,132.84691 C109.969,132.84691 118.619,106.892817 109.969,98.8875836 C106.185,95.3864503 100.049,97.1379422 93.913,98.8875836 C87.778,100.639075 81.641,102.390567 77.857,98.8875836 C70.288,91.8834666 70.288,76.1811061 77.857,69.1751387 C81.641,65.6767812 87.776,67.4264226 93.91,69.1769892 C100.047,70.928481 106.185,72.6790477 109.969,69.1751387 C118.619,61.1736059 109.969,35.220438 109.969,35.220438 C109.969,35.220438 81.921,43.2256718 73.271,35.220438 C65.702,28.2181716 80.841,12.5121101 73.271,5.50891841 C69.487,2.00685993 63.351,0.256293315 57.215,0.256293315 C51.079,0.256293315 44.943,2.00685993 41.159,5.50891841" id="Fill-222" fill="url(#linearGradient-21)" mask="url(#mask-20)"></path>
                                </g>
                                <path d="M4.4604,132.847003 C4.4604,132.847003 32.5104,124.840844 41.1584,132.847003 C48.7284,139.848344 33.5904,155.555331 41.1584,162.554822 C48.7284,169.559864 65.7024,169.559864 73.2714,162.554822 C80.8404,155.555331 65.7024,139.848344 73.2714,132.847003 C81.9204,124.840844 109.9694,132.847003 109.9694,132.847003 C109.9694,132.847003 118.6194,106.891985 109.9694,98.8886013 C102.4014,91.8854096 85.4264,105.890868 77.8574,98.8886013 C70.2884,91.8854096 70.2884,76.1821239 77.8574,69.1770817 C85.4264,62.1748152 102.4014,76.1821239 109.9694,69.1770817 C118.6194,61.1727731 109.9694,35.2196053 109.9694,35.2196053 C109.9694,35.2196053 81.9204,43.2266896 73.2714,35.2196053 C65.7024,28.2182641 80.8404,12.5112774 73.2714,5.50901093 C65.7024,-1.49418077 48.7284,-1.49418077 41.1584,5.50901093 C33.5904,12.5112774 48.7284,28.2182641 41.1584,35.2196053 C32.5104,43.2266896 4.4604,35.2196053 4.4604,35.2196053 C4.4604,35.2196053 -4.1916,61.1727731 4.4604,69.1770817 C12.0264,76.1821239 29.0034,62.1748152 36.5694,69.1770817 C44.1394,76.1821239 44.1394,91.8854096 36.5694,98.8886013 C29.0034,105.890868 12.0264,91.8854096 4.4604,98.8886013 C-4.1916,106.891985 4.4604,132.847003 4.4604,132.847003 Z" id="Stroke-225" stroke="#F2F2F2" stroke-width="0.264"></path>
                            </g>
                            <g id="Group-234" transform="translate(1231.000000, 510.736137)">
                                <g id="Group-230">
                                    <mask id="mask-23" fill="white">
                                        <use xlink:href="#path-22"></use>
                                    </mask>
                                    <g id="Clip-229"></g>
                                    <path d="M41.087,5.81980127 C33.52,12.8220677 48.657,28.5281292 41.087,35.5313209 C32.439,43.5328537 4.389,35.5313209 4.389,35.5313209 C4.389,35.5313209 -4.258,61.485414 4.389,69.487872 C8.173,72.98808 14.309,71.2375134 20.445,69.487872 C26.581,67.7363802 32.718,65.9858136 36.502,69.487872 C44.068,76.4892133 44.068,92.1962 36.502,99.1984664 C32.718,102.70145 26.581,100.949958 20.445,99.1993917 C14.309,97.4488251 8.173,95.6973332 4.389,99.1984664 C-4.258,107.20185 4.389,133.154092 4.389,133.154092 L109.901,133.154092 L109.901,35.5313209 C109.901,35.5313209 81.85,43.5328537 73.2,35.5313209 C65.632,28.5281292 80.77,12.8220677 73.2,5.81980127 C69.416,2.3177428 63.28,0.566250935 57.145,0.566250935 C51.008,0.566250935 44.871,2.3177428 41.087,5.81980127" id="Fill-228" fill="url(#linearGradient-24)" mask="url(#mask-23)"></path>
                                </g>
                                <g id="Group-233">
                                    <mask id="mask-26" fill="white">
                                        <use xlink:href="#path-25"></use>
                                    </mask>
                                    <g id="Clip-232"></g>
                                    <path d="M109.9009,133.154185 L109.9009,35.5304882 C109.9009,35.5304882 81.8499,43.5347967 73.1999,35.5304882 C65.6309,28.5282217 80.7699,12.821235 73.1999,5.8198938 C65.6309,-1.18329791 48.6569,-1.18329791 41.0869,5.8198938 C33.5199,12.821235 48.6569,28.5282217 41.0869,35.5304882 C32.4399,43.5347967 4.3889,35.5304882 4.3889,35.5304882 C4.3889,35.5304882 -4.2581,61.4845813 4.3889,69.4861141 C11.9589,76.490231 28.9349,62.4829224 36.5029,69.4861141 C44.0689,76.490231 44.0689,92.194442 36.5029,99.1994842 C28.9349,106.202676 11.9589,92.194442 4.3889,99.1994842 C-4.2581,107.200092 4.3889,133.154185 4.3889,133.154185 L109.9009,133.154185 Z" id="Stroke-231" stroke="#F2F2F2" stroke-width="0.264" mask="url(#mask-26)"></path>
                                </g>
                            </g>
                            <g id="Group-241" transform="translate(92.000000, 501.483671)">
                                <g id="Group-237">
                                    <mask id="mask-28" fill="white">
                                        <use xlink:href="#path-27"></use>
                                    </mask>
                                    <g id="Clip-236"></g>
                                    <path d="M40.646,5.94285907 C33.08,12.946976 48.215,28.651187 40.646,35.6562292 C31.997,43.6586873 3.947,35.6562292 3.947,35.6562292 C3.947,35.6562292 -4.702,61.6084718 3.947,69.6118551 C7.73,73.1129883 13.867,71.3624217 20.002,69.6118551 C26.138,67.8612885 32.274,66.1097966 36.059,69.6118551 C43.63,76.6141215 43.63,92.3192578 36.059,99.3233747 C32.274,102.824508 26.139,101.074867 20.003,99.3233747 C13.868,97.5728081 7.731,95.8213162 3.947,99.3233747 C-4.702,107.325833 3.947,133.27715 3.947,133.27715 L109.46,133.27715 C109.46,133.27715 118.109,107.325833 109.46,99.3233747 C105.675,95.8213162 99.539,97.5728081 93.402,99.3233747 C87.267,101.074867 81.131,102.824508 77.347,99.3233747 C69.778,92.3192578 69.778,76.6141215 77.347,69.6118551 C81.132,66.1097966 87.268,67.8612885 93.403,69.6118551 C99.539,71.3624217 105.675,73.1129883 109.46,69.6118551 C118.109,61.6084718 109.46,35.6562292 109.46,35.6562292 C109.46,35.6562292 81.408,43.6586873 72.758,35.6562292 C65.19,28.651187 80.328,12.946976 72.758,5.94285907 C68.974,2.4408006 62.838,0.690233982 56.702,0.690233982 C50.567,0.690233982 44.431,2.4408006 40.646,5.94285907" id="Fill-235" fill="url(#linearGradient-29)" mask="url(#mask-28)"></path>
                                </g>
                                <g id="Group-240">
                                    <mask id="mask-31" fill="white">
                                        <use xlink:href="#path-30"></use>
                                    </mask>
                                    <g id="Clip-239"></g>
                                    <path d="M109.4604,133.277983 C109.4604,133.277983 118.1094,107.32574 109.4604,99.3242074 C101.8904,92.31824 84.9164,106.326474 77.3474,99.3242074 C69.7784,92.31824 69.7784,76.6149543 77.3474,69.6099121 C84.9164,62.6076456 101.8904,76.6149543 109.4604,69.6099121 C118.1094,61.6083793 109.4604,35.6552114 109.4604,35.6552114 C109.4604,35.6552114 81.4084,43.6585947 72.7584,35.6552114 C65.1904,28.6520197 80.3284,12.9459583 72.7584,5.9436918 C65.1904,-1.05949991 48.2154,-1.05949991 40.6464,5.9436918 C33.0804,12.9459583 48.2154,28.6520197 40.6464,35.6552114 C31.9974,43.6585947 3.9474,35.6552114 3.9474,35.6552114 C3.9474,35.6552114 -4.7016,61.6083793 3.9474,69.6099121 C11.5164,76.6149543 28.4914,62.6076456 36.0594,69.6099121 C43.6284,76.6149543 43.6284,92.31824 36.0594,99.3242074 C28.4914,106.326474 11.5164,92.31824 3.9474,99.3242074 C-4.7016,107.32574 3.9474,133.277983 3.9474,133.277983 L109.4604,133.277983 Z" id="Stroke-238" stroke="#F2F2F2" stroke-width="0.264" mask="url(#mask-31)"></path>
                                </g>
                            </g>
                            <g id="Group-247" transform="translate(269.000000, 422.837708)">
                                <g id="Group-244">
                                    <mask id="mask-33" fill="white">
                                        <use xlink:href="#path-32"></use>
                                    </mask>
                                    <g id="Clip-243"></g>
                                    <path d="M106.781,3.76205278 C99.213,10.7652445 114.351,26.4722312 106.781,33.4735724 C99.213,40.4776894 82.238,40.4776894 74.668,33.4735724 C67.1,26.4722312 82.238,10.7652445 74.668,3.76205278 C66.02,-4.23948004 37.969,3.76205278 37.969,3.76205278 C37.969,3.76205278 46.619,29.7152206 37.969,37.7167534 C34.185,41.2206624 28.047,39.4700958 21.911,37.7186039 C15.776,35.9680373 9.641,34.2183959 5.857,37.7167534 C-1.712,44.7227209 -1.712,60.4250813 5.857,67.4291983 C9.641,70.932182 15.778,69.1806902 21.913,67.4291983 C28.049,65.6795569 34.185,63.9280651 37.969,67.4291983 C46.619,75.4344321 37.969,101.388525 37.969,101.388525 C37.969,101.388525 66.02,109.390058 74.668,101.388525 C82.238,94.3825577 67.1,78.679272 74.668,71.6751551 C82.238,64.6719634 99.213,64.6719634 106.781,71.6751551 C114.351,78.679272 99.213,94.3825577 106.781,101.388525 C115.43,109.390058 143.48,101.388525 143.48,101.388525 C143.48,101.388525 134.83,75.4344321 143.48,67.4291983 C147.265,63.9280651 153.401,65.6795569 159.536,67.4291983 C165.673,69.1806902 171.809,70.932182 175.594,67.4291983 C183.162,60.4250813 183.162,44.7227209 175.594,37.7167534 C171.81,34.2183959 165.674,35.9680373 159.539,37.7186039 C153.403,39.4700958 147.266,41.2206624 143.48,37.7167534 C134.83,29.7152206 143.48,3.76205278 143.48,3.76205278 C143.48,3.76205278 131.013,0.206329997 120.14,0.205404751 C114.702,0.205404751 109.665,1.09456676 106.781,3.76205278" id="Fill-242" fill="url(#linearGradient-34)" mask="url(#mask-33)"></path>
                                </g>
                                <path d="M37.9697,3.76242288 C37.9697,3.76242288 46.6197,29.7155907 37.9697,37.7171235 C30.4017,44.7240162 13.4267,30.7176328 5.8577,37.7171235 C-1.7123,44.7240162 -1.7123,60.4254514 5.8577,67.4304936 C13.4267,74.4336854 30.4017,60.4254514 37.9697,67.4304936 C46.6197,75.4348022 37.9697,101.388895 37.9697,101.388895 C37.9697,101.388895 66.0207,109.390428 74.6687,101.388895 C82.2387,94.3829278 67.1007,78.6796421 74.6687,71.6745999 C82.2387,64.6723335 99.2127,64.6723335 106.7817,71.6745999 C114.3507,78.6796421 99.2127,94.3829278 106.7817,101.388895 C115.4307,109.390428 143.4797,101.388895 143.4797,101.388895 C143.4797,101.388895 134.8307,75.4348022 143.4797,67.4304936 C151.0497,60.4254514 168.0237,74.4336854 175.5947,67.4304936 C183.1617,60.4254514 183.1617,44.7240162 175.5947,37.7171235 C168.0237,30.7176328 151.0497,44.7240162 143.4797,37.7171235 C134.8307,29.7155907 143.4797,3.76242288 143.4797,3.76242288 C143.4797,3.76242288 115.4307,-4.23910994 106.7817,3.76242288 C99.2127,10.7646893 114.3507,26.471676 106.7817,33.4730173 C99.2127,40.4780595 82.2387,40.4780595 74.6687,33.4730173 C67.1007,26.471676 82.2387,10.7646893 74.6687,3.76242288 C66.0207,-4.23910994 37.9697,3.76242288 37.9697,3.76242288 Z" id="Stroke-245" stroke="#F2F2F2" stroke-width="0.264"></path>
                            </g>
                            <g id="Group-254" transform="translate(600.000000, 542.194522)">
                                <g id="Group-250">
                                    <mask id="mask-36" fill="white">
                                        <use xlink:href="#path-35"></use>
                                    </mask>
                                    <g id="Clip-249"></g>
                                    <path d="M38.472,4.0720104 C38.472,4.0720104 47.122,30.0251782 38.472,38.026711 C34.688,41.5296948 28.551,39.7791282 22.414,38.0285615 C16.279,36.2779949 10.144,34.5274283 6.36,38.026711 C-1.21,45.0326785 -1.21,60.7368895 6.36,67.7382307 C10.145,71.2412144 16.281,69.4906478 22.417,67.7391559 C28.552,65.9885893 34.688,64.2380227 38.472,67.7382307 C47.122,75.7443897 38.472,101.697558 38.472,101.697558 C38.472,101.697558 66.523,109.700941 75.172,101.697558 C82.742,94.6934406 67.602,78.9883044 75.172,71.9851127 C82.742,64.9828462 99.716,64.9828462 107.284,71.9851127 C114.853,78.9883044 99.716,94.6934406 107.284,101.697558 C115.933,109.700941 143.983,101.697558 143.983,101.697558 C143.983,101.697558 135.334,75.7443897 143.983,67.7382307 C147.766,64.2380227 153.902,65.9885893 160.037,67.7391559 C166.173,69.4906478 172.31,71.2412144 176.096,67.7382307 C183.665,60.7368895 183.665,45.0326785 176.096,38.026711 C172.311,34.5274283 166.176,36.2779949 160.042,38.0285615 C153.904,39.7791282 147.767,41.5296948 143.983,38.026711 C135.334,30.0251782 143.983,4.0720104 143.983,4.0720104 C143.983,4.0720104 131.516,0.51536237 120.643,0.51536237 C115.205,0.51536237 110.168,1.40452438 107.284,4.0720104 C99.716,11.0742769 114.853,26.7812636 107.284,33.7826048 C99.716,40.787647 82.742,40.787647 75.172,33.7826048 C67.602,26.7812636 82.742,11.0742769 75.172,4.0720104 C72.289,1.40544962 67.25,0.516287617 61.813,0.51536237 C50.939,0.51536237 38.472,4.0720104 38.472,4.0720104" id="Fill-248" fill="url(#linearGradient-37)" mask="url(#mask-36)"></path>
                                </g>
                                <g id="Group-253">
                                    <mask id="mask-39" fill="white">
                                        <use xlink:href="#path-38"></use>
                                    </mask>
                                    <g id="Clip-252"></g>
                                    <path d="M38.4722,4.0723805 C38.4722,4.0723805 47.1222,30.0255483 38.4722,38.0261559 C30.9042,45.0339738 13.9292,31.0266652 6.3602,38.0261559 C-1.2098,45.0339738 -1.2098,60.7354091 6.3602,67.739526 C13.9292,74.7427177 30.9042,60.7354091 38.4722,67.739526 C47.1222,75.7447598 38.4722,101.697928 38.4722,101.697928 C38.4722,101.697928 66.5232,109.700386 75.1712,101.697928 C82.7412,94.6928855 67.6022,78.9886745 75.1712,71.9845575 C82.7412,64.9822911 99.7152,64.9822911 107.2842,71.9845575 C114.8532,78.9886745 99.7152,94.6928855 107.2842,101.697928 C115.9332,109.700386 143.9832,101.697928 143.9832,101.697928 C143.9832,101.697928 135.3332,75.7447598 143.9832,67.739526 C151.5522,60.7354091 168.5262,74.7427177 176.0962,67.739526 C183.6642,60.7354091 183.6642,45.0339738 176.0962,38.0261559 C168.5262,31.0266652 151.5522,45.0339738 143.9832,38.0261559 C135.3332,30.0255483 143.9832,4.0723805 143.9832,4.0723805 C143.9832,4.0723805 115.9332,-3.93007756 107.2842,4.0723805 C99.7152,11.074647 114.8532,26.7816337 107.2842,33.7829749 C99.7152,40.7880171 82.7412,40.7880171 75.1712,33.7829749 C67.6022,26.7816337 82.7412,11.074647 75.1712,4.0723805 C66.5232,-3.93007756 38.4722,4.0723805 38.4722,4.0723805 Z" id="Stroke-251" stroke="#F2F2F2" stroke-width="0.264" mask="url(#mask-39)"></path>
                                </g>
                            </g>
                            <g id="Group-261" transform="translate(978.000000, 539.418782)">
                                <g id="Group-257">
                                    <mask id="mask-41" fill="white">
                                        <use xlink:href="#path-40"></use>
                                    </mask>
                                    <g id="Clip-256"></g>
                                    <path d="M107.438,3.95080309 C99.869,10.95492 115.007,26.6609815 107.438,33.663248 C99.869,40.6673649 82.895,40.6673649 75.325,33.663248 C67.757,26.6609815 82.895,10.95492 75.325,3.95080309 C66.677,-4.05072972 38.626,3.95080309 38.626,3.95080309 C38.626,3.95080309 47.276,29.9058214 38.626,37.906429 C34.841,41.4112632 28.704,39.6597713 22.567,37.9082795 C16.432,36.1577129 10.298,34.4071462 6.514,37.906429 C-1.054,44.9133217 -1.054,60.6156822 6.514,67.6188739 C10.299,71.1209323 16.435,69.3694405 22.57,67.6197991 C28.706,65.8683072 34.842,64.1177406 38.626,67.6188739 C47.276,75.6241077 38.626,101.578201 38.626,101.578201 C38.626,101.578201 66.677,109.579734 75.325,101.578201 C82.895,94.5731585 67.757,78.8689476 75.325,71.8648306 C82.895,64.8625642 99.869,64.8625642 107.438,71.8648306 C115.007,78.8689476 99.869,94.5731585 107.438,101.578201 C116.087,109.579734 144.137,101.578201 144.137,101.578201 C144.137,101.578201 135.487,75.6241077 144.137,67.6188739 C147.921,64.1177406 154.057,65.8683072 160.193,67.6197991 C166.328,69.3694405 172.465,71.1209323 176.251,67.6188739 C183.819,60.6156822 183.819,44.9133217 176.251,37.906429 C172.465,34.4071462 166.331,36.1577129 160.196,37.9082795 C154.059,39.6597713 147.922,41.4112632 144.137,37.906429 C135.487,29.9058214 144.137,3.95080309 144.137,3.95080309 C144.137,3.95080309 131.67,0.395080309 120.797,0.394155062 C115.359,0.394155062 110.322,1.28424232 107.438,3.95080309" id="Fill-255" fill="url(#linearGradient-42)" mask="url(#mask-41)"></path>
                                </g>
                                <g id="Group-260">
                                    <mask id="mask-44" fill="white">
                                        <use xlink:href="#path-43"></use>
                                    </mask>
                                    <g id="Clip-259"></g>
                                    <path d="M38.6265,3.95126571 C38.6265,3.95126571 47.2755,29.9053588 38.6265,37.9059664 C31.0585,44.9128591 14.0835,30.9064756 6.5145,37.9059664 C-1.0555,44.9128591 -1.0555,60.6161448 6.5145,67.6193365 C14.0835,74.6225282 31.0585,60.6161448 38.6265,67.6193365 C47.2755,75.6245703 38.6265,101.577738 38.6265,101.577738 C38.6265,101.577738 66.6775,109.580196 75.3245,101.577738 C82.8955,94.5726959 67.7575,78.8684849 75.3245,71.864368 C82.8955,64.8621015 99.8695,64.8621015 107.4385,71.864368 C115.0075,78.8684849 99.8695,94.5726959 107.4385,101.577738 C116.0875,109.580196 144.1375,101.577738 144.1375,101.577738 C144.1375,101.577738 135.4865,75.6245703 144.1375,67.6193365 C151.7065,60.6161448 168.6805,74.6225282 176.2505,67.6193365 C183.8185,60.6161448 183.8185,44.9128591 176.2505,37.9059664 C168.6805,30.9064756 151.7065,44.9128591 144.1375,37.9059664 C135.4865,29.9053588 144.1375,3.95126571 144.1375,3.95126571 C144.1375,3.95126571 116.0875,-4.0502671 107.4385,3.95126571 C99.8695,10.9544574 115.0075,26.6614441 107.4385,33.6627853 C99.8695,40.6678275 82.8955,40.6678275 75.3245,33.6627853 C67.7575,26.6614441 82.8955,10.9544574 75.3245,3.95126571 C66.6775,-4.0502671 38.6265,3.95126571 38.6265,3.95126571 Z" id="Stroke-258" stroke="#F2F2F2" stroke-width="0.264" mask="url(#mask-44)"></path>
                                </g>
                            </g>
                            <g id="Group-268" transform="translate(475.000000, 510.736137)">
                                <g id="Group-264">
                                    <mask id="mask-46" fill="white">
                                        <use xlink:href="#path-45"></use>
                                    </mask>
                                    <g id="Clip-263"></g>
                                    <path d="M40.694,5.81980127 C33.123,12.8220677 48.263,28.5281292 40.694,35.5313209 C32.044,43.5328537 3.995,35.5313209 3.995,35.5313209 C3.995,35.5313209 -4.655,61.485414 3.995,69.487872 C7.779,72.98808 13.916,71.2375134 20.051,69.487872 C26.187,67.7363802 32.323,65.9858136 36.107,69.487872 C43.677,76.4892133 43.677,92.1962 36.107,99.1984664 C32.323,102.70145 26.187,100.949958 20.051,99.1993917 C13.916,97.4488251 7.779,95.6973332 3.995,99.1984664 C-4.655,107.20185 3.995,133.154092 3.995,133.154092 L109.506,133.154092 C109.506,133.154092 118.156,107.20185 109.506,99.1984664 C105.72,95.6973332 99.586,97.4488251 93.451,99.1993917 C87.315,100.949958 81.18,102.70145 77.395,99.1984664 C69.826,92.1962 69.826,76.4892133 77.395,69.487872 C81.18,65.9858136 87.315,67.7363802 93.451,69.487872 C99.585,71.2375134 105.72,72.98808 109.506,69.487872 C118.156,61.485414 109.506,35.5313209 109.506,35.5313209 C109.506,35.5313209 81.456,43.5328537 72.807,35.5313209 C65.237,28.5281292 80.375,12.8220677 72.807,5.81980127 C69.022,2.3177428 62.886,0.566250935 56.75,0.566250935 C50.614,0.566250935 44.479,2.3177428 40.694,5.81980127" id="Fill-262" fill="url(#linearGradient-47)" mask="url(#mask-46)"></path>
                                </g>
                                <g id="Group-267">
                                    <mask id="mask-49" fill="white">
                                        <use xlink:href="#path-48"></use>
                                    </mask>
                                    <g id="Clip-266"></g>
                                    <path d="M109.5059,133.154185 C109.5059,133.154185 118.1559,107.200092 109.5059,99.1994842 C101.9359,92.194442 84.9639,106.202676 77.3949,99.1994842 C69.8269,92.194442 69.8269,76.490231 77.3949,69.4861141 C84.9639,62.4829224 101.9359,76.490231 109.5059,69.4861141 C118.1559,61.4845813 109.5059,35.5304882 109.5059,35.5304882 C109.5059,35.5304882 81.4559,43.5347967 72.8069,35.5304882 C65.2369,28.5282217 80.3749,12.821235 72.8069,5.8198938 C65.2369,-1.18329791 48.2629,-1.18329791 40.6939,5.8198938 C33.1239,12.821235 48.2629,28.5282217 40.6939,35.5304882 C32.0439,43.5347967 3.9949,35.5304882 3.9949,35.5304882 C3.9949,35.5304882 -4.6541,61.4845813 3.9949,69.4861141 C11.5649,76.490231 28.5389,62.4829224 36.1069,69.4861141 C43.6769,76.490231 43.6769,92.194442 36.1069,99.1994842 C28.5389,106.202676 11.5649,92.194442 3.9949,99.1994842 C-4.6541,107.200092 3.9949,133.154185 3.9949,133.154185 L109.5059,133.154185 Z" id="Stroke-265" stroke="#F2F2F2" stroke-width="0.264" mask="url(#mask-49)"></path>
                                </g>
                            </g>
                            <g id="Group-275" transform="translate(793.000000, 510.736137)">
                                <g id="Group-271">
                                    <mask id="mask-51" fill="white">
                                        <use xlink:href="#path-50"></use>
                                    </mask>
                                    <g id="Clip-270"></g>
                                    <path d="M41.53,5.81980127 C33.96,12.8220677 49.1,28.5281292 41.53,35.5313209 C32.88,43.5328537 4.832,35.5313209 4.832,35.5313209 C4.832,35.5313209 -3.818,61.485414 4.832,69.487872 C8.616,72.98808 14.751,71.2375134 20.887,69.487872 C27.023,67.7363802 33.159,65.9858136 36.944,69.487872 C44.514,76.4892133 44.514,92.1962 36.944,99.1984664 C33.159,102.70145 27.023,100.949958 20.887,99.1993917 C14.751,97.4488251 8.616,95.6973332 4.832,99.1984664 C-3.818,107.20185 4.832,133.154092 4.832,133.154092 L110.343,133.154092 C110.343,133.154092 118.993,107.20185 110.343,99.1984664 C106.558,95.6973332 100.422,97.4488251 94.288,99.1993917 C88.152,100.949958 82.016,102.70145 78.232,99.1984664 C70.664,92.1962 70.664,76.4892133 78.232,69.487872 C82.016,65.9858136 88.152,67.7363802 94.287,69.487872 C100.422,71.2375134 106.558,72.98808 110.343,69.487872 C118.993,61.485414 110.343,35.5313209 110.343,35.5313209 C110.343,35.5313209 82.293,43.5328537 73.644,35.5313209 C66.074,28.5281292 81.212,12.8220677 73.644,5.81980127 C69.859,2.3177428 63.723,0.566250935 57.587,0.566250935 C51.451,0.566250935 45.315,2.3177428 41.53,5.81980127" id="Fill-269" fill="url(#linearGradient-52)" mask="url(#mask-51)"></path>
                                </g>
                                <g id="Group-274">
                                    <mask id="mask-54" fill="white">
                                        <use xlink:href="#path-53"></use>
                                    </mask>
                                    <g id="Clip-273"></g>
                                    <path d="M110.3433,133.154185 C110.3433,133.154185 118.9923,107.200092 110.3433,99.1994842 C102.7733,92.194442 85.8003,106.202676 78.2323,99.1994842 C70.6633,92.194442 70.6633,76.490231 78.2323,69.4861141 C85.8003,62.4829224 102.7733,76.490231 110.3433,69.4861141 C118.9923,61.4845813 110.3433,35.5304882 110.3433,35.5304882 C110.3433,35.5304882 82.2923,43.5347967 73.6443,35.5304882 C66.0733,28.5282217 81.2123,12.821235 73.6443,5.8198938 C66.0733,-1.18329791 49.1003,-1.18329791 41.5303,5.8198938 C33.9603,12.821235 49.1003,28.5282217 41.5303,35.5304882 C32.8803,43.5347967 4.8313,35.5304882 4.8313,35.5304882 C4.8313,35.5304882 -3.8177,61.4845813 4.8313,69.4861141 C12.4023,76.490231 29.3753,62.4829224 36.9443,69.4861141 C44.5143,76.490231 44.5143,92.194442 36.9443,99.1994842 C29.3753,106.202676 12.4023,92.194442 4.8313,99.1994842 C-3.8177,107.200092 4.8313,133.154185 4.8313,133.154185 L110.3433,133.154185 Z" id="Stroke-272" stroke="#F2F2F2" stroke-width="0.264" mask="url(#mask-54)"></path>
                                </g>
                            </g>
                            <g id="Group-281" transform="translate(163.000000, 129.534528)">
                                <g id="Group-278">
                                    <mask id="mask-56" fill="white">
                                        <use xlink:href="#path-55"></use>
                                    </mask>
                                    <g id="Clip-277"></g>
                                    <path d="M107.271,3.77038 C99.702,10.7726465 114.841,26.4796332 107.271,33.4800491 C99.702,40.4823156 82.728,40.4823156 75.159,33.4800491 C67.59,26.4796332 82.728,10.7726465 75.159,3.77038 C66.51,-4.2348538 38.46,3.77038 38.46,3.77038 C38.46,3.77038 47.109,29.7226226 38.46,37.7250806 C34.675,41.2280644 28.539,39.4765725 22.402,37.7260059 C16.267,35.974514 10.131,34.2239474 6.347,37.7250806 C-1.222,44.7301228 -1.222,60.4343338 6.347,67.4384508 C10.131,70.939584 16.267,69.1890174 22.402,67.4384508 C28.539,65.6878842 34.675,63.9363923 38.46,67.4384508 C47.109,75.4409088 38.46,101.394077 38.46,101.394077 C38.46,101.394077 66.51,109.398385 75.159,101.394077 C82.728,94.3899597 67.59,78.6838982 75.159,71.6807065 C82.728,64.6765896 99.702,64.6765896 107.271,71.6807065 C114.841,78.6838982 99.702,94.3899597 107.271,101.394077 C115.921,109.398385 143.97,101.394077 143.97,101.394077 C143.97,101.394077 135.321,75.4409088 143.97,67.4384508 C147.755,63.9363923 153.892,65.6878842 160.027,67.4384508 C166.163,69.1890174 172.299,70.939584 176.085,67.4384508 C183.653,60.4343338 183.653,44.7301228 176.085,37.7250806 C172.299,34.2239474 166.163,35.974514 160.028,37.7260059 C153.892,39.4765725 147.755,41.2280644 143.97,37.7250806 C135.321,29.7226226 143.97,3.77038 143.97,3.77038 C143.97,3.77038 131.503,0.212806724 120.63,0.211881477 C115.192,0.211881477 110.155,1.10196873 107.271,3.77038" id="Fill-276" fill="url(#linearGradient-57)" mask="url(#mask-56)"></path>
                                </g>
                                <path d="M38.4604,3.77010242 C38.4604,3.77010242 47.1094,29.722345 38.4604,37.7248031 C30.8904,44.72892 13.9164,30.7216114 6.3474,37.7248031 C-1.2216,44.72892 -1.2216,60.4340562 6.3474,67.4372479 C13.9164,74.4404397 30.8904,60.4340562 38.4604,67.4372479 C47.1094,75.439706 38.4604,101.393799 38.4604,101.393799 C38.4604,101.393799 66.5104,109.399958 75.1584,101.393799 C82.7284,94.3896821 67.5904,78.6836207 75.1584,71.680429 C82.7284,64.6772373 99.7024,64.6772373 107.2714,71.680429 C114.8404,78.6836207 99.7024,94.3896821 107.2714,101.393799 C115.9204,109.399958 143.9704,101.393799 143.9704,101.393799 C143.9704,101.393799 135.3214,75.439706 143.9704,67.4372479 C151.5404,60.4340562 168.5144,74.4404397 176.0844,67.4372479 C183.6524,60.4340562 183.6524,44.72892 176.0844,37.7248031 C168.5144,30.7216114 151.5404,44.72892 143.9704,37.7248031 C135.3214,29.722345 143.9704,3.77010242 143.9704,3.77010242 C143.9704,3.77010242 115.9204,-4.23513138 107.2714,3.77010242 C99.7024,10.7723689 114.8404,26.4793556 107.2714,33.4788463 C99.7024,40.482038 82.7284,40.482038 75.1584,33.4788463 C67.5904,26.4793556 82.7284,10.7723689 75.1584,3.77010242 C66.5104,-4.23513138 38.4604,3.77010242 38.4604,3.77010242 Z" id="Stroke-279" stroke="#F2F2F2" stroke-width="0.264"></path>
                            </g>
                            <g id="Group-287" transform="translate(92.000000, 98.076142)">
                                <g id="Group-284">
                                    <mask id="mask-59" fill="white">
                                        <use xlink:href="#path-58"></use>
                                    </mask>
                                    <g id="Clip-283"></g>
                                    <path d="M40.646,5.51632038 C33.08,12.5204373 48.215,28.2246483 40.646,35.2287653 C31.997,43.2312233 3.947,35.2287653 3.947,35.2287653 C3.947,35.2287653 -4.702,61.1810078 3.947,69.1834659 C7.731,72.6864496 13.868,70.9349578 20.004,69.1843911 C26.139,67.4328993 32.274,65.6823327 36.059,69.1834659 C43.63,76.1885081 43.63,91.8927191 36.059,98.896836 C32.274,102.397969 26.139,100.647403 20.003,98.896836 C13.868,97.1462694 7.731,95.3947775 3.947,98.896836 C-4.702,106.899294 3.947,132.852462 3.947,132.852462 C3.947,132.852462 31.997,124.848153 40.646,132.852462 C48.215,139.854728 33.08,155.559865 40.646,162.564907 C48.215,169.567173 65.19,169.567173 72.758,162.564907 C80.328,155.559865 65.19,139.854728 72.758,132.852462 C81.408,124.848153 109.46,132.852462 109.46,132.852462 C109.46,132.852462 118.109,106.899294 109.46,98.896836 C105.675,95.3947775 99.539,97.1462694 93.402,98.896836 C87.267,100.647403 81.131,102.397969 77.347,98.896836 C69.778,91.8927191 69.778,76.1885081 77.347,69.1834659 C81.131,65.6823327 87.267,67.4328993 93.402,69.1843911 C99.539,70.9349578 105.675,72.6864496 109.46,69.1834659 C118.109,61.1810078 109.46,35.2287653 109.46,35.2287653 C109.46,35.2287653 81.408,43.2312233 72.758,35.2287653 C65.19,28.2246483 80.328,12.5204373 72.758,5.51632038 C68.974,2.0161124 62.838,0.264620535 56.702,0.264620535 C50.567,0.264620535 44.431,2.0161124 40.646,5.51632038" id="Fill-282" fill="url(#linearGradient-60)" mask="url(#mask-59)"></path>
                                </g>
                                <path d="M3.9473,132.852369 C3.9473,132.852369 31.9973,124.848986 40.6463,132.852369 C48.2153,139.853711 33.0803,155.560697 40.6463,162.563889 C48.2153,169.567081 65.1903,169.567081 72.7583,162.563889 C80.3283,155.560697 65.1903,139.853711 72.7583,132.852369 C81.4083,124.848986 109.4603,132.852369 109.4603,132.852369 C109.4603,132.852369 118.1093,106.899202 109.4603,98.8958182 C101.8903,91.8917013 84.9163,105.899935 77.3473,98.8958182 C69.7783,91.8917013 69.7783,76.1874903 77.3473,69.1833734 C84.9163,62.1801817 101.8903,76.1874903 109.4603,69.1833734 C118.1093,61.1809153 109.4603,35.2286727 109.4603,35.2286727 C109.4603,35.2286727 81.4083,43.2311308 72.7583,35.2286727 C65.1903,28.225481 80.3283,12.5203448 72.7583,5.5171531 C65.1903,-1.4860386 48.2153,-1.4860386 40.6463,5.5171531 C33.0803,12.5203448 48.2153,28.225481 40.6463,35.2286727 C31.9973,43.2311308 3.9473,35.2286727 3.9473,35.2286727 C3.9473,35.2286727 -4.7017,61.1809153 3.9473,69.1833734 C11.5163,76.1874903 28.4913,62.1801817 36.0593,69.1833734 C43.6293,76.1874903 43.6293,91.8917013 36.0593,98.8958182 C28.4913,105.899935 11.5163,91.8917013 3.9473,98.8958182 C-4.7017,106.899202 3.9473,132.852369 3.9473,132.852369 Z" id="Stroke-285" stroke="#F2F2F2" stroke-width="0.264"></path>
                            </g>
                            <g id="Group-294" transform="translate(0.000000, 195.227038)">
                                <g id="Group-290">
                                    <mask id="mask-62" fill="white">
                                        <use xlink:href="#path-61"></use>
                                    </mask>
                                    <g id="Clip-289"></g>
                                    <path d="M27.136,5.98819616 C19.568,12.9913879 34.705,28.6974493 27.136,35.7015663 C18.488,43.7058748 -9.563,35.7015663 -9.563,35.7015663 L-9.563,133.325263 C-9.563,133.325263 18.488,125.32188 27.136,133.325263 C34.705,140.330305 19.568,156.032666 27.136,163.036783 C34.705,170.039049 51.68,170.039049 59.249,163.036783 C66.818,156.032666 51.68,140.330305 59.249,133.325263 C67.898,125.32188 95.947,133.325263 95.947,133.325263 C95.947,133.325263 104.596,107.373946 95.947,99.3687118 C92.162,95.8675786 86.026,97.6181452 79.891,99.3687118 C73.755,101.120204 67.619,102.87077 63.836,99.3687118 C56.266,92.3645948 56.266,76.6594586 63.836,69.6553417 C67.619,66.1569842 73.754,67.9066256 79.889,69.6571922 C86.025,71.4077588 92.162,73.1583254 95.947,69.6553417 C104.596,61.6519584 95.947,35.7015663 95.947,35.7015663 C95.947,35.7015663 67.898,43.7058748 59.249,35.7015663 C51.68,28.6974493 66.818,12.9913879 59.249,5.98819616 C55.465,2.48706293 49.329,0.735571067 43.192,0.735571067 C37.057,0.735571067 30.921,2.48706293 27.136,5.98819616" id="Fill-288" fill="url(#linearGradient-63)" mask="url(#mask-62)"></path>
                                </g>
                                <g id="Group-293">
                                    <mask id="mask-65" fill="white">
                                        <use xlink:href="#path-64"></use>
                                    </mask>
                                    <g id="Clip-292"></g>
                                    <path d="M-9.563,133.325911 C-9.563,133.325911 18.487,125.321602 27.135,133.325911 C34.706,140.330028 19.567,156.032388 27.135,163.036505 C34.706,170.038771 51.68,170.038771 59.25,163.036505 C66.818,156.032388 51.68,140.330028 59.25,133.325911 C67.898,125.321602 95.947,133.325911 95.947,133.325911 C95.947,133.325911 104.596,107.373668 95.947,99.3684342 C88.378,92.3643173 71.404,106.371626 63.835,99.3684342 C56.266,92.3643173 56.266,76.6591811 63.835,69.6569146 C71.404,62.6555734 88.378,76.6591811 95.947,69.6569146 C104.596,61.6535313 95.947,35.7012887 95.947,35.7012887 C95.947,35.7012887 67.898,43.7074478 59.25,35.7012887 C51.68,28.6971718 66.818,12.9911103 59.25,5.98791858 C51.68,-1.01527312 34.706,-1.01527312 27.135,5.98791858 C19.567,12.9911103 34.706,28.6971718 27.135,35.7012887 C18.487,43.7074478 -9.563,35.7012887 -9.563,35.7012887 L-9.563,133.325911 Z" id="Stroke-291" stroke="#F2F2F2" stroke-width="0.264" mask="url(#mask-65)"></path>
                                </g>
                            </g>
                            <g id="Group-301" transform="translate(0.000000, 129.534528)">
                                <g id="Group-297">
                                    <mask id="mask-67" fill="white">
                                        <use xlink:href="#path-66"></use>
                                    </mask>
                                    <g id="Clip-296"></g>
                                    <path d="M59.249,3.77038 C51.68,10.7726465 66.818,26.4796332 59.249,33.4800491 C51.68,40.4823156 34.705,40.4823156 27.136,33.4800491 C19.568,26.4796332 34.705,10.7726465 27.136,3.77038 C18.488,-4.2348538 -9.563,3.77038 -9.563,3.77038 L-9.563,101.394077 C-9.563,101.394077 18.488,109.398385 27.136,101.394077 C34.705,94.3899597 19.568,78.6838982 27.136,71.6807065 C34.705,64.6765896 51.68,64.6765896 59.249,71.6807065 C66.818,78.6838982 51.68,94.3899597 59.249,101.394077 C67.898,109.398385 95.947,101.394077 95.947,101.394077 C95.947,101.394077 87.298,75.4409088 95.947,67.4384508 C99.731,63.9363923 105.868,65.6878842 112.003,67.4384508 C118.139,69.1890174 124.274,70.939584 128.059,67.4384508 C135.63,60.4343338 135.63,44.7301228 128.059,37.7250806 C124.274,34.2239474 118.139,35.974514 112.004,37.7260059 C105.868,39.4765725 99.731,41.2280644 95.947,37.7250806 C87.298,29.7226226 95.947,3.77038 95.947,3.77038 C95.947,3.77038 83.48,0.212806724 72.607,0.211881477 C67.17,0.211881477 62.133,1.10196873 59.249,3.77038" id="Fill-295" fill="url(#linearGradient-68)" mask="url(#mask-67)"></path>
                                </g>
                                <g id="Group-300">
                                    <mask id="mask-70" fill="white">
                                        <use xlink:href="#path-69"></use>
                                    </mask>
                                    <g id="Clip-299"></g>
                                    <path d="M-9.563,101.393984 C-9.563,101.393984 18.487,109.398293 27.135,101.393984 C34.706,94.3898672 19.567,78.6838057 27.135,71.680614 C34.706,64.6774223 51.68,64.6774223 59.25,71.680614 C66.818,78.6838057 51.68,94.3898672 59.25,101.393984 C67.898,109.398293 95.947,101.393984 95.947,101.393984 C95.947,101.393984 87.298,75.4408163 95.947,67.437433 C103.517,60.433316 120.491,74.4415499 128.06,67.437433 C135.629,60.433316 135.629,44.7291051 128.06,37.7249881 C120.491,30.7217964 103.517,44.7291051 95.947,37.7249881 C87.298,29.7225301 95.947,3.77028747 95.947,3.77028747 C95.947,3.77028747 67.898,-4.23494633 59.25,3.77028747 C51.68,10.7734792 66.818,26.4795406 59.25,33.4799566 C51.68,40.4822231 34.706,40.4822231 27.135,33.4799566 C19.567,26.4795406 34.706,10.7734792 27.135,3.77028747 C18.487,-4.23494633 -9.563,3.77028747 -9.563,3.77028747 L-9.563,101.393984 Z" id="Stroke-298" stroke="#F2F2F2" stroke-width="0.264" mask="url(#mask-70)"></path>
                                </g>
                            </g>
                            <g id="Group-307" transform="translate(197.000000, 195.227038)">
                                <g id="Group-304">
                                    <mask id="mask-72" fill="white">
                                        <use xlink:href="#path-71"></use>
                                    </mask>
                                    <g id="Clip-303"></g>
                                    <path d="M41.159,5.98819616 C33.59,12.9913879 48.728,28.6974493 41.159,35.7015663 C32.51,43.7058748 4.46,35.7015663 4.46,35.7015663 C4.46,35.7015663 -4.191,61.6519584 4.46,69.6553417 C8.244,73.1583254 14.38,71.4077588 20.517,69.6571922 C26.651,67.9066256 32.787,66.1569842 36.57,69.6553417 C44.139,76.6594586 44.139,92.3645948 36.57,99.3687118 C32.787,102.87077 26.651,101.120204 20.515,99.3687118 C14.379,97.6181452 8.244,95.8675786 4.46,99.3687118 C-4.191,107.373946 4.46,133.325263 4.46,133.325263 C4.46,133.325263 32.51,125.32188 41.159,133.325263 C48.728,140.330305 33.59,156.032666 41.159,163.036783 C48.728,170.039049 65.702,170.039049 73.271,163.036783 C80.841,156.032666 65.702,140.330305 73.271,133.325263 C81.921,125.32188 109.969,133.325263 109.969,133.325263 C109.969,133.325263 118.619,107.373946 109.969,99.3687118 C106.185,95.8675786 100.049,97.6181452 93.913,99.3687118 C87.777,101.120204 81.641,102.87077 77.857,99.3687118 C70.288,92.3645948 70.288,76.6594586 77.857,69.6553417 C81.641,66.1569842 87.776,67.9066256 93.911,69.6571922 C100.048,71.4077588 106.185,73.1583254 109.97,69.6553417 C118.619,61.6519584 109.97,35.7015663 109.97,35.7015663 C109.97,35.7015663 81.921,43.7058748 73.271,35.7015663 C65.702,28.6974493 80.841,12.9913879 73.271,5.98819616 C69.487,2.48706293 63.351,0.735571067 57.215,0.735571067 C51.079,0.735571067 44.943,2.48706293 41.159,5.98819616" id="Fill-302" fill="url(#linearGradient-73)" mask="url(#mask-72)"></path>
                                </g>
                                <path d="M4.4604,133.325911 C4.4604,133.325911 32.5104,125.321602 41.1584,133.325911 C48.7284,140.330028 33.5904,156.032388 41.1584,163.036505 C48.7284,170.038771 65.7024,170.038771 73.2714,163.036505 C80.8404,156.032388 65.7024,140.330028 73.2714,133.325911 C81.9204,125.321602 109.9694,133.325911 109.9694,133.325911 C109.9694,133.325911 118.6194,107.373668 109.9694,99.3684342 C102.4014,92.3643173 85.4264,106.371626 77.8574,99.3684342 C70.2884,92.3643173 70.2884,76.6591811 77.8574,69.6569146 C85.4264,62.6555734 102.4014,76.6591811 109.9704,69.6569146 C118.6194,61.6535313 109.9704,35.7012887 109.9704,35.7012887 C109.9704,35.7012887 81.9204,43.7074478 73.2714,35.7012887 C65.7024,28.6971718 80.8404,12.9911103 73.2714,5.98791858 C65.7024,-1.01527312 48.7284,-1.01527312 41.1584,5.98791858 C33.5904,12.9911103 48.7284,28.6971718 41.1584,35.7012887 C32.5104,43.7074478 4.4604,35.7012887 4.4604,35.7012887 C4.4604,35.7012887 -4.1916,61.6535313 4.4604,69.6569146 C12.0264,76.6591811 29.0034,62.6555734 36.5694,69.6569146 C44.1394,76.6591811 44.1394,92.3643173 36.5694,99.3684342 C29.0034,106.371626 12.0264,92.3643173 4.4604,99.3684342 C-4.1916,107.373668 4.4604,133.325911 4.4604,133.325911 Z" id="Stroke-305" stroke="#F2F2F2" stroke-width="0.264"></path>
                            </g>
                            <g id="Group-313" transform="translate(58.000000, 226.685423)">
                                <g id="Group-310">
                                    <mask id="mask-75" fill="white">
                                        <use xlink:href="#path-74"></use>
                                    </mask>
                                    <g id="Clip-309"></g>
                                    <path d="M106.758,4.24318102 C99.19,11.2454475 114.328,26.9505837 106.758,33.9556259 C99.19,40.9578924 82.215,40.9578924 74.646,33.9556259 C67.08,26.9505837 82.215,11.2454475 74.646,4.24318102 C65.997,-3.76112753 37.947,4.24318102 37.947,4.24318102 C37.947,4.24318102 46.596,30.1935731 37.947,38.1969564 C34.162,41.6999401 28.025,39.9493735 21.889,38.1988069 C15.754,36.4482403 9.619,34.6985989 5.836,38.1969564 C-1.734,45.2010734 -1.734,60.9062096 5.836,67.9103265 C9.619,71.412385 15.755,69.6618184 21.891,67.9103265 C28.026,66.1597599 34.162,64.4091933 37.947,67.9103265 C46.596,75.9155603 37.947,101.866878 37.947,101.866878 C37.947,101.866878 65.997,109.871186 74.646,101.866878 C82.215,94.8646112 67.08,79.1585498 74.646,72.1553581 C82.215,65.1521664 99.19,65.1521664 106.758,72.1553581 C114.328,79.1585498 99.19,94.8646112 106.758,101.866878 C115.408,109.871186 143.46,101.866878 143.46,101.866878 C143.46,101.866878 134.809,75.9155603 143.46,67.9103265 C147.244,64.4091933 153.379,66.1597599 159.515,67.9103265 C165.651,69.6618184 171.787,71.412385 175.57,67.9103265 C183.139,60.9062096 183.139,45.2010734 175.57,38.1969564 C171.787,34.6985989 165.651,36.4482403 159.517,38.1988069 C153.381,39.9493735 147.244,41.6999401 143.46,38.1969564 C134.809,30.1935731 143.46,4.24318102 143.46,4.24318102 C143.46,4.24318102 130.992,0.686532996 120.118,0.685607749 C114.68,0.685607749 109.642,1.57476976 106.758,4.24318102" id="Fill-308" fill="url(#linearGradient-76)" mask="url(#mask-75)"></path>
                                </g>
                                <path d="M37.9473,4.2430885 C37.9473,4.2430885 46.5963,30.1953311 37.9473,38.1968639 C30.3783,45.2019061 13.4043,31.1973732 5.8353,38.1968639 C-1.7337,45.2019061 -1.7337,60.9061171 5.8353,67.910234 C13.4043,74.9134257 30.3783,60.9061171 37.9473,67.910234 C46.5963,75.9154678 37.9473,101.86771 37.9473,101.86771 C37.9473,101.86771 65.9973,109.871094 74.6463,101.86771 C82.2153,94.8635935 67.0803,79.1593825 74.6463,72.1552655 C82.2153,65.1520738 99.1903,65.1520738 106.7583,72.1552655 C114.3283,79.1593825 99.1903,94.8635935 106.7583,101.86771 C115.4083,109.871094 143.4603,101.86771 143.4603,101.86771 C143.4603,101.86771 134.8083,75.9154678 143.4603,67.910234 C151.0273,60.9061171 168.0033,74.9134257 175.5703,67.910234 C183.1393,60.9061171 183.1393,45.2019061 175.5703,38.1968639 C168.0033,31.1973732 151.0273,45.2019061 143.4603,38.1968639 C134.8083,30.1953311 143.4603,4.2430885 143.4603,4.2430885 C143.4603,4.2430885 115.4083,-3.76029481 106.7583,4.2430885 C99.1903,11.2444297 114.3283,26.9514164 106.7583,33.9546081 C99.1903,40.9577998 82.2153,40.9577998 74.6463,33.9546081 C67.0803,26.9514164 82.2153,11.2444297 74.6463,4.2430885 C65.9973,-3.76029481 37.9473,4.2430885 37.9473,4.2430885 Z" id="Stroke-311" stroke="#F2F2F2" stroke-width="0.264"></path>
                            </g>
                            <g id="Group-320">
                                <g id="Group-316">
                                    <mask id="mask-78" fill="white">
                                        <use xlink:href="#path-77"></use>
                                    </mask>
                                    <g id="Clip-315"></g>
                                    <path d="M27.136,5.96599024 C19.568,12.9701072 34.705,28.6770939 27.136,35.6802856 C18.488,43.6836689 -9.563,35.6802856 -9.563,35.6802856 L-9.563,133.304908 C-9.563,133.304908 18.488,125.299674 27.136,133.304908 C34.705,140.307174 19.568,156.014161 27.136,163.014577 C34.705,170.016843 51.68,170.016843 59.249,163.014577 C66.818,156.014161 51.68,140.307174 59.249,133.304908 C67.898,125.299674 95.947,133.304908 95.947,133.304908 C95.947,133.304908 104.596,107.35359 95.947,99.3483564 C92.162,95.8462979 86.026,97.5968645 79.89,99.3483564 C73.755,101.098923 67.619,102.84949 63.836,99.3483564 C56.266,92.3433142 56.266,76.6418789 63.836,69.6386872 C67.619,66.1357035 73.756,67.8871954 79.892,69.6386872 C86.027,71.3901791 92.162,73.1398205 95.947,69.6386872 C104.596,61.6316029 95.947,35.6802856 95.947,35.6802856 C95.947,35.6802856 67.898,43.6836689 59.249,35.6802856 C51.68,28.6770939 66.818,12.9738082 59.249,5.96599024 C55.465,2.4667075 49.329,0.717066134 43.192,0.717066134 C37.057,0.717066134 30.921,2.4667075 27.136,5.96599024" id="Fill-314" fill="url(#linearGradient-79)" mask="url(#mask-78)"></path>
                                </g>
                                <g id="Group-319">
                                    <mask id="mask-81" fill="white">
                                        <use xlink:href="#path-80"></use>
                                    </mask>
                                    <g id="Clip-318"></g>
                                    <path d="M-9.563,133.30463 C-9.563,133.30463 18.487,125.299396 27.135,133.30463 C34.706,140.306896 19.567,156.013883 27.135,163.013374 C34.706,170.016566 51.68,170.016566 59.25,163.013374 C66.818,156.013883 51.68,140.306896 59.25,133.30463 C67.898,125.299396 95.947,133.30463 95.947,133.30463 C95.947,133.30463 104.596,107.352387 95.947,99.3480788 C88.378,92.3430366 71.404,106.34942 63.835,99.3480788 C56.266,92.3430366 56.266,76.6416014 63.835,69.6384097 C71.404,62.6333675 88.378,76.6416014 95.947,69.6384097 C104.596,61.6322506 95.947,35.680008 95.947,35.680008 C95.947,35.680008 67.898,43.6843166 59.25,35.680008 C51.68,28.6768163 66.818,12.9735306 59.25,5.96663791 C51.68,-1.03285281 34.706,-1.03285281 27.135,5.96663791 C19.567,12.9698296 34.706,28.6768163 27.135,35.680008 C18.487,43.6843166 -9.563,35.680008 -9.563,35.680008 L-9.563,133.30463 Z" id="Stroke-317" stroke="#F2F2F2" stroke-width="0.264" mask="url(#mask-81)"></path>
                                </g>
                            </g>
                            <g id="Group-326" transform="translate(58.000000, 31.458385)">
                                <g id="Group-323">
                                    <mask id="mask-83" fill="white">
                                        <use xlink:href="#path-82"></use>
                                    </mask>
                                    <g id="Clip-322"></g>
                                    <path d="M37.947,4.22190035 C37.947,4.22190035 46.596,30.1732177 37.947,38.180302 C34.162,41.6814352 28.027,39.9317938 21.892,38.180302 C15.756,36.4288101 9.619,34.6773183 5.836,38.180302 C-1.734,45.1834937 -1.734,60.8849289 5.836,67.8899711 C9.619,71.3911043 15.755,69.6405377 21.889,67.8899711 C28.025,66.1384793 34.162,64.3879126 37.947,67.8899711 C46.596,75.8952049 37.947,101.846522 37.947,101.846522 C37.947,101.846522 65.997,109.84898 74.646,101.846522 C82.215,94.8424053 67.08,79.1381943 74.646,72.1340774 C82.215,65.1318109 99.19,65.1318109 106.758,72.1340774 C114.328,79.1381943 99.19,94.8424053 106.758,101.846522 C115.408,109.84898 143.46,101.846522 143.46,101.846522 C143.46,101.846522 134.809,75.8952049 143.46,67.8899711 C147.244,64.3879126 153.38,66.1384793 159.516,67.8899711 C165.651,69.6405377 171.787,71.3911043 175.57,67.8899711 C183.139,60.8849289 183.139,45.1834937 175.57,38.180302 C171.786,34.6773183 165.65,36.4288101 159.513,38.180302 C153.378,39.9317938 147.243,41.6814352 143.46,38.180302 C134.809,30.1732177 143.46,4.22190035 143.46,4.22190035 C143.46,4.22190035 130.992,0.665252323 120.118,0.665252323 C114.68,0.665252323 109.642,1.55348908 106.758,4.22190035 C99.19,11.2250921 114.328,26.9302283 106.758,33.9343452 C99.19,40.9366117 82.215,40.9366117 74.646,33.9343452 C67.08,26.9302283 82.215,11.2250921 74.646,4.22190035 C71.763,1.55441433 66.724,0.665252323 61.288,0.665252323 C50.413,0.665252323 37.947,4.22190035 37.947,4.22190035" id="Fill-321" fill="url(#linearGradient-84)" mask="url(#mask-83)"></path>
                                </g>
                                <path d="M37.9473,4.22143773 C37.9473,4.22143773 46.5963,30.1736803 37.9473,38.1798394 C30.3783,45.1830311 13.4043,31.1747972 5.8353,38.1798394 C-1.7337,45.1830311 -1.7337,60.8844663 5.8353,67.8904337 C13.4043,74.8908497 30.3783,60.8844663 37.9473,67.8904337 C46.5963,75.893817 37.9473,101.84606 37.9473,101.84606 C37.9473,101.84606 65.9973,109.848518 74.6463,101.84606 C82.2153,94.8428679 67.0803,79.1377317 74.6463,72.13454 C82.2153,65.1313483 99.1903,65.1313483 106.7583,72.13454 C114.3283,79.1377317 99.1903,94.8428679 106.7583,101.84606 C115.4083,109.848518 143.4603,101.84606 143.4603,101.84606 C143.4603,101.84606 134.8083,75.893817 143.4603,67.8904337 C151.0273,60.8844663 168.0033,74.8908497 175.5703,67.8904337 C183.1393,60.8844663 183.1393,45.1830311 175.5703,38.1798394 C168.0033,31.1747972 151.0273,45.1830311 143.4603,38.1798394 C134.8083,30.1736803 143.4603,4.22143773 143.4603,4.22143773 C143.4603,4.22143773 115.4083,-3.78102033 106.7583,4.22143773 C99.1903,11.2246294 114.3283,26.9297656 106.7583,33.9329574 C99.1903,40.9370743 82.2153,40.9370743 74.6463,33.9329574 C67.0803,26.9297656 82.2153,11.2246294 74.6463,4.22143773 C65.9973,-3.78102033 37.9473,4.22143773 37.9473,4.22143773 Z" id="Stroke-324" stroke="#F2F2F2" stroke-width="0.264"></path>
                            </g>
                        </g>
                    </g>
                </g>
            </g>
        </g>
    </g>
</svg>