<svg xmlns="http://www.w3.org/2000/svg" viewBox="0 0 12.88 12.87"><defs><style>.cls-1{fill:#4f4f4f;}</style></defs><title>availability</title><g id="Layer_2" data-name="Layer 2"><g id="Job_details" data-name="Job details"><g id="time_icon.PNG" data-name="time icon.PNG"><path class="cls-1" d="M12.37,3.93A6.3,6.3,0,0,0,8.94.51a6.38,6.38,0,0,0-5,0A6.42,6.42,0,0,0,0,6.43a6.44,6.44,0,0,0,3.93,5.93,6.36,6.36,0,0,0,5,0,6.31,6.31,0,0,0,3.43-3.42,6.36,6.36,0,0,0,0-5Zm-.74,2.5A5.11,5.11,0,0,1,10.93,9,5.2,5.2,0,0,1,9,10.93a5.1,5.1,0,0,1-2.6.7,5,5,0,0,1-2-.41,5.31,5.31,0,0,1-1.66-1.1A5.27,5.27,0,0,1,1.66,8.45a5.23,5.23,0,0,1,.28-4.62A5.21,5.21,0,0,1,3.84,1.94a5.19,5.19,0,0,1,5.2,0,5.22,5.22,0,0,1,1.9,1.89A5.07,5.07,0,0,1,11.63,6.43Z"/><path class="cls-1" d="M7.07,6.27V2.87a.63.63,0,0,0-1.26,0V6.5A.6.6,0,0,0,6,7L8,9a.62.62,0,1,0,.88-.88Z"/></g></g></g></svg>