<svg xmlns="http://www.w3.org/2000/svg" viewBox="0 0 12.93 12.93"><defs><style>.cls-1{fill:#4f4f4f;}</style></defs><title>date</title><g id="Layer_2" data-name="Layer 2"><g id="Job_details" data-name="Job details"><g id="calendar_icon.PNG" data-name="calendar icon.PNG"><g id="_222._Calender" data-name="222. Calender"><path class="cls-1" d="M7.49,6.8h0a.68.68,0,0,0,0,1.36h0a.68.68,0,0,0,0-1.36Zm-2-.68a.68.68,0,1,0-.68-.68A.68.68,0,0,0,5.44,6.12Zm2-1.36h0a.68.68,0,1,0,0,1.36h0a.68.68,0,1,0,0-1.36Zm.68-3.4H4.76V2.72h3.4ZM9.53,6.12a.68.68,0,1,0-.68-.68A.68.68,0,0,0,9.53,6.12Zm0,2a.68.68,0,1,0-.68-.68A.68.68,0,0,0,9.53,8.17Zm-4.08,0a.68.68,0,1,0-.68-.68A.68.68,0,0,0,5.44,8.17Zm-2,2a.68.68,0,1,0-.68-.68A.68.68,0,0,0,3.4,10.21Zm8.17-8.85h-.68V2.72h.68v8.85H1.36V2.72H2V1.36H1.36A1.36,1.36,0,0,0,0,2.72v8.85a1.36,1.36,0,0,0,1.36,1.36H11.57a1.36,1.36,0,0,0,1.36-1.36V2.72A1.36,1.36,0,0,0,11.57,1.36ZM3.4,8.17a.68.68,0,1,0-.68-.68A.68.68,0,0,0,3.4,8.17Zm0-2a.68.68,0,1,0-.68-.68A.68.68,0,0,0,3.4,6.12Zm2,4.08a.68.68,0,1,0-.68-.68A.68.68,0,0,0,5.44,10.21Zm-2-7.49A.68.68,0,0,0,4.08,2V.68a.68.68,0,1,0-1.36,0V2A.68.68,0,0,0,3.4,2.72Zm6.12,0A.68.68,0,0,0,10.21,2V.68a.68.68,0,1,0-1.36,0V2A.68.68,0,0,0,9.53,2.72Z"/></g></g></g></g></svg>