<svg xmlns="http://www.w3.org/2000/svg" viewBox="0 0 44.12 58.19"><defs><style>.cls-1{fill:#03a8f2;}.cls-2{fill:#6badc1;}.cls-3{fill:#4f4f4f;}.cls-4{fill:#fff;}</style></defs><title>start assessments</title><g id="Layer_2" data-name="Layer 2"><g id="starts_assessment" data-name="starts assessment"><circle class="cls-1" cx="35.82" cy="49.89" r="8.3"/><path class="cls-2" d="M39.44,18.37c0-4.59,0-9.19,0-13.78A4.4,4.4,0,0,0,34.9,0c-5.5,0-11,0-16.51,0A4.42,4.42,0,0,0,16,.65c0,3.52,0,7,0,10.56a4.29,4.29,0,0,1-4.38,4.41c-1.11,0-2.23,0-3.34,0a1.41,1.41,0,0,0-1.19.52c-1.76,2-3.51,4-5.29,6A10,10,0,0,1,.11,24c0,2.73,0,5.46,0,8.19q0,7.24,0,14.47a1.06,1.06,0,0,0-.06.26c0,2,0,4,.08,5.93a4.33,4.33,0,0,0,4.27,4.06c1.48,0,3,0,4.43,0l19.71,0a10.4,10.4,0,0,1-2.74-7.26,10.05,10.05,0,0,1,9.71-9.68,12,12,0,0,1,3.94.65c0-3.34,0-6.68,0-10Q39.46,24.46,39.44,18.37ZM10.1,23.83H29.41a1.36,1.36,0,0,1,1.3.69c0,1-.29,1.39-1.3,1.41l-.74,0-11.87,0H10.11c-.83,0-1.33-.4-1.33-1S9.28,23.83,10.1,23.83Zm-.06,6h4.3l9.42,0,5.8,0c.71,0,1.14.38,1.18,1s-.44,1.11-1.24,1.11h-7l-2.11,0-9.56,0H10c-.78,0-1.26-.42-1.26-1S9.28,29.84,10,29.84Zm19.18,7.62h-16l-.48,0-2.72,0a1.11,1.11,0,0,1-1.2-1.1,1.09,1.09,0,0,1,1.21-1l6.11,0,8.32,0h4.84c1,0,1.46.36,1.45,1S30.22,37.46,29.21,37.46Z"/><path class="cls-3" d="M16,.65c0,3.52,0,7,0,10.56a4.29,4.29,0,0,1-4.38,4.41c-1.11,0-2.23,0-3.34,0a1.41,1.41,0,0,0-1.19.52c-1.76,2-3.51,4-5.29,6A10,10,0,0,1,.11,24a38.55,38.55,0,0,1,.08-6.73A4,4,0,0,1,1.42,15L15.07,1.35A3,3,0,0,1,16,.65Z"/><path class="cls-4" d="M41.67,47.15c-.07,0-.07,0-.08.07a1.57,1.57,0,0,1-.39.58c-1.88,1.91-3.75,3.82-5.64,5.73a6.19,6.19,0,0,1-1.71,1.15,6,6,0,0,1-1.28.32l-1.37.32,0,0s0,0,0,0h-.29l.68-3.08a1.42,1.42,0,0,1,.19-.43,6.79,6.79,0,0,1,1-1.25l5.63-5.72a1.34,1.34,0,0,1,2.07,0l.49.5a2.46,2.46,0,0,1,.71.94l0,0,0,0Z"/></g></g></svg>