<?xml version="1.0" encoding="UTF-8" standalone="no"?>
<svg width="124px" height="124px" viewBox="0 0 124 124" version="1.1" xmlns="http://www.w3.org/2000/svg" xmlns:xlink="http://www.w3.org/1999/xlink">
    <!-- Generator: sketchtool 50.2 (55047) - http://www.bohemiancoding.com/sketch -->
    <title>91BC93C5-9B83-4F01-AEA4-8047A3821075</title>
    <desc>Created with sketchtool.</desc>
    <defs></defs>
    <g id="Page-1" stroke="none" stroke-width="1" fill="none" fill-rule="evenodd">
        <g id="Knack---Homepage" transform="translate(-738.000000, -867.000000)">
            <g id="For-Professionals" transform="translate(0.000000, 686.000000)">
                <g id="Coaching_icon" transform="translate(738.000000, 181.000000)">
                    <circle id="oval_container" fill="#FFFFFF" cx="62" cy="62" r="62"></circle>
                    <g id="ic_feedback" transform="translate(40.000000, 40.000000)">
                        <g id="Icon-24px">
                            <polygon id="Shape" points="0 0 45 0 45 45 0 45"></polygon>
                            <path d="M37.5,3.75 L7.5,3.75 C5.4375,3.75 3.76875,5.4375 3.76875,7.5 L3.75,41.25 L11.25,33.75 L37.5,33.75 C39.5625,33.75 41.25,32.0625 41.25,30 L41.25,7.5 C41.25,5.4375 39.5625,3.75 37.5,3.75 L37.5,3.75 Z M24.375,26.25 L20.625,26.25 L20.625,22.5 L24.375,22.5 L24.375,26.25 L24.375,26.25 Z M24.375,18.75 L20.625,18.75 L20.625,11.25 L24.375,11.25 L24.375,18.75 L24.375,18.75 Z" id="Shape" fill="#0eaf81"></path>
                        </g>
                    </g>
                </g>
            </g>
        </g>
    </g>
</svg>