<?xml version="1.0" encoding="UTF-8" standalone="no"?>
<svg width="124px" height="124px" viewBox="0 0 124 124" version="1.1" xmlns="http://www.w3.org/2000/svg" xmlns:xlink="http://www.w3.org/1999/xlink">
    <!-- Generator: sketchtool 50.2 (55047) - http://www.bohemiancoding.com/sketch -->
    <title>41CC7E96-CD9F-4CAE-9F4E-9563FE5D5058</title>
    <desc>Created with sketchtool.</desc>
    <defs></defs>
    <g id="Page-1" stroke="none" stroke-width="1" fill="none" fill-rule="evenodd">
        <g id="Knack---Homepage" transform="translate(-1227.000000, -873.000000)">
            <g id="For-Professionals" transform="translate(0.000000, 686.000000)">
                <g id="Search_icon" transform="translate(1227.000000, 187.000000)">
                    <circle id="oval_container" fill="#FFFFFF" cx="62" cy="62" r="62"></circle>
                    <g id="ic_search" transform="translate(40.000000, 40.000000)">
                        <g id="Icon-24px">
                            <path d="M29.0625,26.25 L27.58125,26.25 L27.05625,25.74375 C28.89375,23.60625 30,20.83125 30,17.8125 C30,11.08125 24.54375,5.625 17.8125,5.625 C11.08125,5.625 5.625,11.08125 5.625,17.8125 C5.625,24.54375 11.08125,30 17.8125,30 C20.83125,30 23.60625,28.89375 25.74375,27.05625 L26.25,27.58125 L26.25,29.0625 L35.625,38.41875 L38.41875,35.625 L29.0625,26.25 L29.0625,26.25 Z M17.8125,26.25 C13.14375,26.25 9.375,22.48125 9.375,17.8125 C9.375,13.14375 13.14375,9.375 17.8125,9.375 C22.48125,9.375 26.25,13.14375 26.25,17.8125 C26.25,22.48125 22.48125,26.25 17.8125,26.25 L17.8125,26.25 Z" id="Shape" fill="#0eaf81"></path>
                            <polygon id="Shape" points="0 0 45 0 45 45 0 45"></polygon>
                        </g>
                    </g>
                </g>
            </g>
        </g>
    </g>
</svg>