<?xml version="1.0" encoding="UTF-8" standalone="no"?>
<svg width="142px" height="140px" viewBox="0 0 142 140" version="1.1" xmlns="http://www.w3.org/2000/svg" xmlns:xlink="http://www.w3.org/1999/xlink">
    <!-- Generator: sketchtool 50.2 (55047) - http://www.bohemiancoding.com/sketch -->
    <title>1BC1C05C-AF1D-4169-B11C-0A16B1CCF984</title>
    <desc>Created with sketchtool.</desc>
    <defs></defs>
    <g id="Page-1" stroke="none" stroke-width="1" fill="none" fill-rule="evenodd">
        <g id="Knack---Homepage" transform="translate(-728.000000, -1556.000000)" fill-rule="nonzero">
            <g id="For-Companies" transform="translate(-1.000000, 1364.000000)">
                <g id="funnel_icon" transform="translate(729.000000, 192.000000)">
                    <path d="M57.8519698,83.7007344 L57.8519698,137.739013 C57.8519698,139.417643 59.9090363,140.509478 61.6575428,139.758619 L81.2410705,131.350429 C83.0226938,130.585352 84.1483486,129.021565 84.1483486,127.311216 L84.1483486,83.7007344 C84.1483486,82.1415961 84.7747031,80.6303093 85.9213744,79.4217173 L140.226974,22.191334 C141.373964,20.9827421 142,19.4714553 142,17.912317 L142,4.516087 C142,2.02206729 139.6452,0 136.740788,0 L5.25921208,0 C2.35448136,0 0,2.02206729 0,4.516087 L0,17.9120436 C0,19.4711819 0.626354454,20.9824687 1.77302573,22.1910606 L56.0786256,79.4214439 C57.2256153,80.6303093 57.8519698,82.1415961 57.8519698,83.7007344 Z" id="Shape" fill="#FFE17D"></path>
                    <path d="M118.745219,18.0646567 L52.8170834,18.0646567 C51.3585233,18.0646567 50.1762613,17.0537578 50.1762613,15.8066088 L50.1762613,0 L5.28164439,0 C2.36452401,0 0,2.02207124 0,4.51609582 L0,17.9120785 C0,19.4712199 0.629026066,20.9825096 1.78058827,22.1911039 L56.3178198,79.421599 C57.4697018,80.6301933 58.0987278,82.1417565 58.0987278,83.7008978 L58.0987278,137.739009 C58.0987278,139.417642 60.1645684,140.509479 61.9205329,139.758619 L67.3905333,137.42018 L67.3905333,83.5483196 C67.3905333,82.3011706 68.5727953,81.2902717 70.0313555,81.2902717 L73.7856849,81.2902717 C75.536213,81.2902717 77.1732158,80.5487089 78.1562489,79.3100364 L122.260026,23.7354797 C124.173647,21.3240332 122.153536,18.0646567 118.745219,18.0646567 Z" id="Shape" fill="#FFD164"></path>
                    <path d="M28.8539121,18 L0,18 C0.040206951,19.4990788 0.650012375,20.9472075 1.76144738,22.1117046 L56.1815556,79.1377311 C56.7179674,79.70009 57.1286527,80.3319263 57.4270138,81 L59.3623722,81 C61.2198695,81 62.4940469,79.4033802 61.8149962,77.9271881 L36.2121032,22.28172 C35.0234454,19.6985201 32.1042931,18 28.8539121,18 Z" id="Shape" fill="#FFC350"></path>
                </g>
            </g>
        </g>
    </g>
</svg>