<?xml version="1.0" encoding="UTF-8" standalone="no"?>
<svg width="167px" height="167px" viewBox="0 0 167 167" version="1.1" xmlns="http://www.w3.org/2000/svg" xmlns:xlink="http://www.w3.org/1999/xlink">
    <!-- Generator: sketchtool 50.2 (55047) - http://www.bohemiancoding.com/sketch -->
    <title>03EFAE29-9BCD-4836-91CA-D75FDB068338</title>
    <desc>Created with sketchtool.</desc>
    <defs></defs>
    <g id="Page-1" stroke="none" stroke-width="1" fill="none" fill-rule="evenodd">
        <g id="Knack---Homepage" transform="translate(-1222.000000, -1542.000000)" fill-rule="nonzero">
            <g id="For-Companies" transform="translate(-1.000000, 1364.000000)">
                <g id="teamwork_icon" transform="translate(1223.000000, 178.000000)">
                    <circle id="Oval" fill="#FF7900" cx="83" cy="83" r="52"></circle>
                    <path d="M83,31 C111.771574,31 135,54.2284264 135,83 C135,111.771574 111.771574,135 83,135" id="Shape" fill="#E05A00"></path>
                    <g id="Group" transform="translate(8.000000, 73.000000)" fill="#F9BDA0">
                        <path d="M11.6666667,32.67 C5.26666667,32.67 0.2,27.126 0.2,20.526 L0.2,12.342 C0.2,5.742 5.26666667,0.198 11.6666667,0.198 L30.8666667,0.198 C37.2666667,0.198 42.3333333,5.742 42.3333333,12.342 L42.3333333,20.526 C42.3333333,27.126 37.2666667,32.67 30.8666667,32.67 L11.6666667,32.67 Z" id="Shape"></path>
                        <path d="M14.0666667,32.934 C11.6666667,32.934 9.8,31.086 9.8,28.71 C9.8,26.334 11.6666667,24.486 14.0666667,24.486 L49.5333333,24.486 C51.9333333,24.486 53.8,26.334 53.8,28.71 C53.8,31.086 51.9333333,32.934 49.5333333,32.934 L14.0666667,32.934 Z" id="Shape"></path>
                    </g>
                    <path d="M58,104 C56.8571429,104 56,103.166667 56,102.055556 L56,100.944444 C56,99.8333333 56.8571429,99 58,99 C59.1428571,99 60,99.8333333 60,100.944444 L60,102.055556 C59.7142857,103.166667 58.8571429,104 58,104 Z" id="Shape" fill="#FFE4C7"></path>
                    <path d="M34.2666667,90 C31.8666667,90 30,88.25 30,86 C30,83.75 31.8666667,82 34.2666667,82 L69.7333333,82 C72.1333333,82 74,83.75 74,86 C74,88.25 72.1333333,90 69.7333333,90 L34.2666667,90 Z" id="Shape" fill="#F9BDA0"></path>
                    <path d="M70,89 C68.8571429,89 68,88.1666667 68,87.0555556 L68,85.9444444 C68,84.8333333 68.8571429,84 70,84 C71.1428571,84 72,84.8333333 72,85.9444444 L72,87.0555556 C72,88.1666667 71.1428571,89 70,89 Z" id="Shape" fill="#FFE4C7"></path>
                    <path d="M32.2666667,98 C29.8666667,98 28,96.25 28,94 C28,91.75 29.8666667,90 32.2666667,90 L67.7333333,90 C70.1333333,90 72,91.75 72,94 C72,96.25 70.1333333,98 67.7333333,98 L32.2666667,98 Z" id="Shape" fill="#F9BDA0"></path>
                    <path d="M68,97 C66.8571429,97 66,96.1666667 66,95.0555556 L66,93.9444444 C66,92.8333333 66.8571429,92 68,92 C69.1428571,92 70,92.8333333 70,93.9444444 L70,95.0555556 C69.7142857,96.1666667 68.8571429,97 68,97 Z" id="Shape" fill="#FFE4C7"></path>
                    <path d="M29.2666667,82 C26.8666667,82 25,80.25 25,78 C25,75.75 26.8666667,74 29.2666667,74 L64.7333333,74 C67.1333333,74 69,75.75 69,78 C69,80.25 67.1333333,82 64.7333333,82 L29.2666667,82 Z" id="Shape" fill="#F9BDA0"></path>
                    <path d="M65,81 C63.8571429,81 63,80.1666667 63,79.0555556 L63,77.9444444 C63,76.8333333 63.8571429,76 65,76 C66.1428571,76 67,76.8333333 67,77.9444444 L67,79.0555556 C67,80.1666667 66.1428571,81 65,81 Z" id="Shape" fill="#FFE4C7"></path>
                    <path d="M17,74.7131112 C17,74.7131112 32.351836,67.5593537 33.6752702,67.0090647 C34.9987043,66.7339202 43.4686828,72.7870995 40.2924409,76.3639783 C37.1161989,79.940857 27.5874731,78.8402789 27.5874731,78.8402789 L17,74.7131112 Z" id="SVGCleanerId_0" fill="#F9BDA0"></path>
                    <rect id="SVGCleanerId_1" fill="#FFFFFF" x="7" y="74" width="5" height="30"></rect>
                    <polyline id="Shape" fill="#DFE2E5" points="7 74 12 74 12 105"></polyline>
                    <rect id="Rectangle-path" fill="#05365B" x="0" y="71" width="8" height="35"></rect>
                    <path d="M45.6878341,61.6954947 C47.047175,64.4122708 43.7847569,73.3776319 39.4348662,75.5510528 C35.0849754,77.7244736 30.4632165,77.452796 29.3757438,74.7360199 C28.016403,72.0192438 30.4632165,68.2157573 34.8131073,66.0423364 C39.162998,63.8689156 44.3284933,59.2503962 45.6878341,61.6954947 Z" id="SVGCleanerId_2" fill="#F9BDA0"></path>
                    <g id="Group" transform="translate(105.000000, 61.000000)" fill="#EF9A89">
                        <path d="M42.3333333,0.33 C48.7333333,0.33 53.8,5.874 53.8,12.474 L53.8,20.658 C53.8,27.258 48.7333333,32.802 42.3333333,32.802 L23.1333333,32.802 C16.7333333,32.802 11.6666667,27.258 11.6666667,20.658 L11.6666667,12.474 C11.6666667,5.874 16.7333333,0.33 23.1333333,0.33 L42.3333333,0.33 Z" id="Shape"></path>
                        <path d="M39.9333333,0.066 C42.3333333,0.066 44.2,1.914 44.2,4.29 C44.2,6.666 42.3333333,8.514 39.9333333,8.514 L4.46666667,8.514 C2.06666667,8.514 0.2,6.666 0.2,4.29 C0.2,1.914 2.06666667,0.066 4.46666667,0.066 L39.9333333,0.066 Z" id="Shape"></path>
                    </g>
                    <path d="M109,63 C110.142857,63 111,63.8333333 111,64.9444444 L111,66.0555556 C111,67.1666667 110.142857,68 109,68 C107.857143,68 107,67.1666667 107,66.0555556 L107,64.9444444 C107.285714,63.8333333 108.142857,63 109,63 Z" id="Shape" fill="#FFE4C7"></path>
                    <path d="M132.733333,77 C135.133333,77 137,78.75 137,81 C137,83.25 135.133333,85 132.733333,85 L97.2666667,85 C94.8666667,85 93,83.25 93,81 C93,78.75 94.8666667,77 97.2666667,77 L132.733333,77 Z" id="Shape" fill="#EF9A89"></path>
                    <path d="M97,78 C98.1428571,78 99,78.8333333 99,79.9444444 L99,81.0555556 C99,82.1666667 98.1428571,83 97,83 C95.8571429,83 95,82.1666667 95,81.0555556 L95,79.9444444 C95,78.8333333 95.8571429,78 97,78 Z" id="Shape" fill="#FFE4C7"></path>
                    <path d="M135.733333,68 C138.133333,68 140,69.75 140,72 C140,74.25 138.133333,76 135.733333,76 L100.266667,76 C97.8666667,76 96,74.25 96,72 C96,69.75 97.8666667,68 100.266667,68 L135.733333,68 Z" id="Shape" fill="#EF9A89"></path>
                    <path d="M100,70 C101.142857,70 102,70.8333333 102,71.9444444 L102,73.0555556 C102,74.1666667 101.142857,75 100,75 C98.8571429,75 98,74.1666667 98,73.0555556 L98,71.9444444 C98.2857143,70.8333333 99.1428571,70 100,70 Z" id="Shape" fill="#FFE4C7"></path>
                    <path d="M137.804878,85 C140.164634,85 142,86.75 142,89 C142,91.25 140.164634,93 137.804878,93 L103.195122,93 C100.835366,93 99,91.25 99,89 C99,86.75 100.835366,85 103.195122,85 L137.804878,85 Z" id="Shape" fill="#EF9A89"></path>
                    <path d="M102,87 C103.142857,87 104,87.8333333 104,88.9444444 L104,90.0555556 C104,91.1666667 103.142857,92 102,92 C100.857143,92 100,91.1666667 100,90.0555556 L100,88.9444444 C100,87.8333333 100.857143,87 102,87 Z" id="Shape" fill="#FFE4C7"></path>
                    <path d="M150,93.2868888 C150,93.2868888 134.648164,100.440646 133.32473,100.990935 C132.001296,101.26608 123.531317,95.2129005 126.707559,91.6360217 C129.883801,88.059143 139.412527,89.1597211 139.412527,89.1597211 L150,93.2868888 Z" id="SVGCleanerId_3" fill="#EF9A89"></path>
                    <rect id="SVGCleanerId_4" fill="#FFFFFF" x="155" y="62" width="5" height="30"></rect>
                    <polyline id="Shape" fill="#DFE2E5" points="160 93 155 93 155 62"></polyline>
                    <rect id="Rectangle-path" fill="#05365B" x="159" y="60" width="8" height="35"></rect>
                    <path d="M121.312166,106.304505 C119.952825,103.587729 123.215243,94.6223681 127.565134,92.4489472 C131.915025,90.2755264 136.536783,90.547204 137.624256,93.2639801 C138.983597,95.9807562 136.536783,99.7842427 132.186893,101.957664 C127.837002,104.131084 122.671507,108.749604 121.312166,106.304505 Z" id="Shape" fill="#EF9A89"></path>
                    <g id="Group" transform="translate(8.000000, 73.000000)" fill="#F9BDA0">
                        <path d="M11.6666667,32.67 C5.26666667,32.67 0.2,27.126 0.2,20.526 L0.2,12.342 C0.2,5.742 5.26666667,0.198 11.6666667,0.198 L30.8666667,0.198 C37.2666667,0.198 42.3333333,5.742 42.3333333,12.342 L42.3333333,20.526 C42.3333333,27.126 37.2666667,32.67 30.8666667,32.67 L11.6666667,32.67 Z" id="Shape"></path>
                        <path d="M14.0666667,32.934 C11.6666667,32.934 9.8,31.086 9.8,28.71 C9.8,26.334 11.6666667,24.486 14.0666667,24.486 L49.5333333,24.486 C51.9333333,24.486 53.8,26.334 53.8,28.71 C53.8,31.086 51.9333333,32.934 49.5333333,32.934 L14.0666667,32.934 Z" id="Shape"></path>
                    </g>
                    <path d="M58,104 C56.8571429,104 56,103.166667 56,102.055556 L56,100.944444 C56,99.8333333 56.8571429,99 58,99 C59.1428571,99 60,99.8333333 60,100.944444 L60,102.055556 C59.7142857,103.166667 58.8571429,104 58,104 Z" id="Shape" fill="#FFE4C7"></path>
                    <path d="M34.2666667,90 C31.8666667,90 30,88.25 30,86 C30,83.75 31.8666667,82 34.2666667,82 L69.7333333,82 C72.1333333,82 74,83.75 74,86 C74,88.25 72.1333333,90 69.7333333,90 L34.2666667,90 Z" id="Shape" fill="#F9BDA0"></path>
                    <path d="M70,89 C68.8571429,89 68,88.1666667 68,87.0555556 L68,85.9444444 C68,84.8333333 68.8571429,84 70,84 C71.1428571,84 72,84.8333333 72,85.9444444 L72,87.0555556 C72,88.1666667 71.1428571,89 70,89 Z" id="Shape" fill="#FFE4C7"></path>
                    <path d="M32.2666667,98 C29.8666667,98 28,96.25 28,94 C28,91.75 29.8666667,90 32.2666667,90 L67.7333333,90 C70.1333333,90 72,91.75 72,94 C72,96.25 70.1333333,98 67.7333333,98 L32.2666667,98 Z" id="Shape" fill="#F9BDA0"></path>
                    <path d="M68,97 C66.8571429,97 66,96.1666667 66,95.0555556 L66,93.9444444 C66,92.8333333 66.8571429,92 68,92 C69.1428571,92 70,92.8333333 70,93.9444444 L70,95.0555556 C69.7142857,96.1666667 68.8571429,97 68,97 Z" id="Shape" fill="#FFE4C7"></path>
                    <path d="M29.2666667,82 C26.8666667,82 25,80.25 25,78 C25,75.75 26.8666667,74 29.2666667,74 L64.7333333,74 C67.1333333,74 69,75.75 69,78 C69,80.25 67.1333333,82 64.7333333,82 L29.2666667,82 Z" id="Shape" fill="#F9BDA0"></path>
                    <path d="M65,81 C63.8571429,81 63,80.1666667 63,79.0555556 L63,77.9444444 C63,76.8333333 63.8571429,76 65,76 C66.1428571,76 67,76.8333333 67,77.9444444 L67,79.0555556 C67,80.1666667 66.1428571,81 65,81 Z" id="Shape" fill="#FFE4C7"></path>
                    <path d="M17,74.7131112 C17,74.7131112 32.351836,67.5593537 33.6752702,67.0090647 C34.9987043,66.7339202 43.4686828,72.7870995 40.2924409,76.3639783 C37.1161989,79.940857 27.5874731,78.8402789 27.5874731,78.8402789 L17,74.7131112 Z" id="SVGCleanerId_0_1_" fill="#F9BDA0"></path>
                    <rect id="SVGCleanerId_1_1_" fill="#FFFFFF" x="7" y="74" width="5" height="30"></rect>
                    <rect id="Rectangle-path" fill="#008C61" x="0" y="71" width="8" height="35"></rect>
                    <path d="M45.6878341,61.6954947 C47.047175,64.4122708 43.7847569,73.3776319 39.4348662,75.5510528 C35.0849754,77.7244736 30.4632165,77.452796 29.3757438,74.7360199 C28.016403,72.0192438 30.4632165,68.2157573 34.8131073,66.0423364 C39.162998,63.8689156 44.3284933,59.2503962 45.6878341,61.6954947 Z" id="SVGCleanerId_2_1_" fill="#F9BDA0"></path>
                    <g id="Group" transform="translate(105.000000, 61.000000)" fill="#EF9A89">
                        <path d="M42.3333333,0.33 C48.7333333,0.33 53.8,5.874 53.8,12.474 L53.8,20.658 C53.8,27.258 48.7333333,32.802 42.3333333,32.802 L23.1333333,32.802 C16.7333333,32.802 11.6666667,27.258 11.6666667,20.658 L11.6666667,12.474 C11.6666667,5.874 16.7333333,0.33 23.1333333,0.33 L42.3333333,0.33 Z" id="Shape"></path>
                        <path d="M39.9333333,0.066 C42.3333333,0.066 44.2,1.914 44.2,4.29 C44.2,6.666 42.3333333,8.514 39.9333333,8.514 L4.46666667,8.514 C2.06666667,8.514 0.2,6.666 0.2,4.29 C0.2,1.914 2.06666667,0.066 4.46666667,0.066 L39.9333333,0.066 Z" id="Shape"></path>
                    </g>
                    <path d="M109,63 C110.142857,63 111,63.8333333 111,64.9444444 L111,66.0555556 C111,67.1666667 110.142857,68 109,68 C107.857143,68 107,67.1666667 107,66.0555556 L107,64.9444444 C107.285714,63.8333333 108.142857,63 109,63 Z" id="Shape" fill="#F2C4BD"></path>
                    <path d="M132.733333,77 C135.133333,77 137,78.75 137,81 C137,83.25 135.133333,85 132.733333,85 L97.2666667,85 C94.8666667,85 93,83.25 93,81 C93,78.75 94.8666667,77 97.2666667,77 L132.733333,77 Z" id="Shape" fill="#EF9A89"></path>
                    <path d="M97,78 C98.1428571,78 99,78.8333333 99,79.9444444 L99,81.0555556 C99,82.1666667 98.1428571,83 97,83 C95.8571429,83 95,82.1666667 95,81.0555556 L95,79.9444444 C95,78.8333333 95.8571429,78 97,78 Z" id="Shape" fill="#F2C4BD"></path>
                    <path d="M135.733333,68 C138.133333,68 140,69.75 140,72 C140,74.25 138.133333,76 135.733333,76 L100.266667,76 C97.8666667,76 96,74.25 96,72 C96,69.75 97.8666667,68 100.266667,68 L135.733333,68 Z" id="Shape" fill="#EF9A89"></path>
                    <path d="M100,70 C101.142857,70 102,70.8333333 102,71.9444444 L102,73.0555556 C102,74.1666667 101.142857,75 100,75 C98.8571429,75 98,74.1666667 98,73.0555556 L98,71.9444444 C98.2857143,70.8333333 99.1428571,70 100,70 Z" id="Shape" fill="#F2C4BD"></path>
                    <path d="M137.804878,85 C140.164634,85 142,86.75 142,89 C142,91.25 140.164634,93 137.804878,93 L103.195122,93 C100.835366,93 99,91.25 99,89 C99,86.75 100.835366,85 103.195122,85 L137.804878,85 Z" id="Shape" fill="#EF9A89"></path>
                    <path d="M102,87 C103.142857,87 104,87.8333333 104,88.9444444 L104,90.0555556 C104,91.1666667 103.142857,92 102,92 C100.857143,92 100,91.1666667 100,90.0555556 L100,88.9444444 C100,87.8333333 100.857143,87 102,87 Z" id="Shape" fill="#F2C4BD"></path>
                    <path d="M150,93.2868888 C150,93.2868888 134.648164,100.440646 133.32473,100.990935 C132.001296,101.26608 123.531317,95.2129005 126.707559,91.6360217 C129.883801,88.059143 139.412527,89.1597211 139.412527,89.1597211 L150,93.2868888 Z" id="SVGCleanerId_3_1_" fill="#EF9A89"></path>
                    <rect id="SVGCleanerId_4_1_" fill="#FFFFFF" x="155" y="62" width="5" height="30"></rect>
                    <rect id="Rectangle-path" fill="#44B2CC" x="159" y="60" width="8" height="35"></rect>
                    <path d="M121.312166,106.304505 C119.952825,103.587729 123.215243,94.6223681 127.565134,92.4489472 C131.915025,90.2755264 136.536783,90.547204 137.624256,93.2639801 C138.983597,95.9807562 136.536783,99.7842427 132.186893,101.957664 C127.837002,104.131084 122.671507,108.749604 121.312166,106.304505 Z" id="Shape" fill="#EF9A89"></path>
                    <g id="Group" transform="translate(61.000000, 8.000000)" fill="#AD735C">
                        <path d="M0.33,11.6666667 C0.33,5.26666667 5.874,0.2 12.474,0.2 L20.658,0.2 C27.258,0.2 32.802,5.26666667 32.802,11.6666667 L32.802,30.8666667 C32.802,37.2666667 27.258,42.3333333 20.658,42.3333333 L12.474,42.3333333 C5.874,42.3333333 0.33,37.2666667 0.33,30.8666667 L0.33,11.6666667 Z" id="Shape"></path>
                        <path d="M0.066,14.0666667 C0.066,11.6666667 1.914,9.8 4.29,9.8 C6.666,9.8 8.514,11.6666667 8.514,14.0666667 L8.514,49.5333333 C8.514,51.9333333 6.666,53.8 4.29,53.8 C1.914,53.8 0.066,51.9333333 0.066,49.5333333 L0.066,14.0666667 Z" id="Shape"></path>
                    </g>
                    <path d="M63,58 C63,56.8571429 63.8333333,56 64.9444444,56 L66.0555556,56 C67.1666667,56 68,56.8571429 68,58 C68,59.1428571 67.1666667,60 66.0555556,60 L64.9444444,60 C63.8333333,59.7142857 63,58.8571429 63,58 Z" id="Shape" fill="#DBA493"></path>
                    <path d="M77,34.2666667 C77,31.8666667 78.75,30 81,30 C83.25,30 85,31.8666667 85,34.2666667 L85,69.7333333 C85,72.1333333 83.25,74 81,74 C78.75,74 77,72.1333333 77,69.7333333 L77,34.2666667 Z" id="Shape" fill="#AD735C"></path>
                    <path d="M78,70 C78,68.8571429 78.8333333,68 79.9444444,68 L81.0555556,68 C82.1666667,68 83,68.8571429 83,70 C83,71.1428571 82.1666667,72 81.0555556,72 L79.9444444,72 C78.8333333,72 78,71.1428571 78,70 Z" id="Shape" fill="#DBA493"></path>
                    <path d="M68,32.2666667 C68,29.8666667 69.75,28 72,28 C74.25,28 76,29.8666667 76,32.2666667 L76,67.7333333 C76,70.1333333 74.25,72 72,72 C69.75,72 68,70.1333333 68,67.7333333 L68,32.2666667 Z" id="Shape" fill="#AD735C"></path>
                    <path d="M70,68 C70,66.8571429 70.8333333,66 71.9444444,66 L73.0555556,66 C74.1666667,66 75,66.8571429 75,68 C75,69.1428571 74.1666667,70 73.0555556,70 L71.9444444,70 C70.8333333,69.7142857 70,68.8571429 70,68 Z" id="Shape" fill="#DBA493"></path>
                    <path d="M85,29.2666667 C85,26.8666667 86.75,25 89,25 C91.25,25 93,26.8666667 93,29.2666667 L93,64.7333333 C93,67.1333333 91.25,69 89,69 C86.75,69 85,67.1333333 85,64.7333333 L85,29.2666667 Z" id="Shape" fill="#AD735C"></path>
                    <path d="M87,65 C87,63.8571429 87.8333333,63 88.9444444,63 L90.0555556,63 C91.1666667,63 92,63.8571429 92,65 C92,66.1428571 91.1666667,67 90.0555556,67 L88.9444444,67 C87.8333333,67 87,66.1428571 87,65 Z" id="Shape" fill="#DBA493"></path>
                    <path d="M93.2868888,17 C93.2868888,17 100.440646,32.351836 100.990935,33.6752702 C101.26608,34.9987043 95.2129005,43.4686828 91.6360217,40.2924409 C88.059143,37.1161989 89.1597211,27.5874731 89.1597211,27.5874731 L93.2868888,17 Z" id="Shape" fill="#AD735C"></path>
                    <rect id="Rectangle-path" fill="#FFFFFF" x="62" y="7" width="30" height="5"></rect>
                    <rect id="Rectangle-path" fill="#D61E69" x="60" y="0" width="35" height="8"></rect>
                    <path d="M106.304505,45.6878341 C103.587729,47.047175 94.6223681,43.7847569 92.4489472,39.4348662 C90.2755264,35.0849754 90.547204,30.4632165 93.2639801,29.3757438 C95.9807562,28.016403 99.7842427,30.4632165 101.957664,34.8131073 C104.131084,39.162998 108.749604,44.3284933 106.304505,45.6878341 Z" id="Shape" fill="#AD735C"></path>
                    <g id="Group" transform="translate(73.000000, 105.000000)" fill="#F7D2A1">
                        <path d="M32.67,42.3333333 C32.67,48.7333333 27.126,53.8 20.526,53.8 L12.342,53.8 C5.742,53.8 0.198,48.7333333 0.198,42.3333333 L0.198,23.1333333 C0.198,16.7333333 5.742,11.6666667 12.342,11.6666667 L20.526,11.6666667 C27.126,11.6666667 32.67,16.7333333 32.67,23.1333333 L32.67,42.3333333 Z" id="Shape"></path>
                        <path d="M32.934,39.9333333 C32.934,42.3333333 31.086,44.2 28.71,44.2 C26.334,44.2 24.486,42.3333333 24.486,39.9333333 L24.486,4.46666667 C24.486,2.06666667 26.334,0.2 28.71,0.2 C31.086,0.2 32.934,2.06666667 32.934,4.46666667 L32.934,39.9333333 Z" id="Shape"></path>
                    </g>
                    <path d="M104,109 C104,110.142857 103.166667,111 102.055556,111 L100.944444,111 C99.8333333,111 99,110.142857 99,109 C99,107.857143 99.8333333,107 100.944444,107 L102.055556,107 C103.166667,107.285714 104,108.142857 104,109 Z" id="Shape" fill="#FFE4C7"></path>
                    <path d="M90,132.733333 C90,135.133333 88.25,137 86,137 C83.75,137 82,135.133333 82,132.733333 L82,97.2666667 C82,94.8666667 83.75,93 86,93 C88.25,93 90,94.8666667 90,97.2666667 L90,132.733333 Z" id="Shape" fill="#F7D2A1"></path>
                    <path d="M89,97 C89,98.1428571 88.1666667,99 87.0555556,99 L85.9444444,99 C84.8333333,99 84,98.1428571 84,97 C84,95.8571429 84.8333333,95 85.9444444,95 L87.0555556,95 C88.1666667,95 89,95.8571429 89,97 Z" id="Shape" fill="#FFE4C7"></path>
                    <path d="M98,135.733333 C98,138.133333 96.25,140 94,140 C91.75,140 90,138.133333 90,135.733333 L90,100.266667 C90,97.8666667 91.75,96 94,96 C96.25,96 98,97.8666667 98,100.266667 L98,135.733333 Z" id="Shape" fill="#F7D2A1"></path>
                    <path d="M97,100 C97,101.142857 96.1666667,102 95.0555556,102 L93.9444444,102 C92.8333333,102 92,101.142857 92,100 C92,98.8571429 92.8333333,98 93.9444444,98 L95.0555556,98 C96.1666667,98.2857143 97,99.1428571 97,100 Z" id="Shape" fill="#FFE4C7"></path>
                    <path d="M82,137.804878 C82,140.164634 80.25,142 78,142 C75.75,142 74,140.164634 74,137.804878 L74,103.195122 C74,100.835366 75.75,99 78,99 C80.25,99 82,100.835366 82,103.195122 L82,137.804878 Z" id="Shape" fill="#F7D2A1"></path>
                    <path d="M81,102 C81,103.142857 80.1666667,104 79.0555556,104 L77.9444444,104 C76.8333333,104 76,103.142857 76,102 C76,100.857143 76.8333333,100 77.9444444,100 L79.0555556,100 C80.1666667,100 81,100.857143 81,102 Z" id="Shape" fill="#FFE4C7"></path>
                    <path d="M74.7131112,150 C74.7131112,150 67.5593537,134.648164 67.0090647,133.32473 C66.7339202,132.001296 72.7870995,123.531317 76.3639783,126.707559 C79.940857,129.883801 78.8402789,139.412527 78.8402789,139.412527 L74.7131112,150 Z" id="Shape" fill="#F7D2A1"></path>
                    <rect id="Rectangle-path" fill="#FFFFFF" x="74" y="155" width="30" height="5"></rect>
                    <rect id="Rectangle-path" fill="#05365B" x="71" y="159" width="35" height="8"></rect>
                    <path d="M61.6954947,121.295517 C64.4122708,120.008673 73.3776319,123.0971 75.5510528,127.215003 C77.7244736,131.332907 77.452796,135.708179 74.7360199,136.737655 C72.0192438,137.76713 68.2157573,135.708179 66.0423364,131.590276 C63.8689156,127.472372 59.2503962,122.582362 61.6954947,121.295517 Z" id="Shape" fill="#F7D2A1"></path>
                </g>
            </g>
        </g>
    </g>
</svg>